<svg width="302" height="290" viewBox="0 0 302 290" fill="none" xmlns="http://www.w3.org/2000/svg">
<path d="M159.648 289.392C238.267 289.392 302 225.659 302 147.04C302 68.4214 238.267 4.68848 159.648 4.68848C81.0298 4.68848 17.2969 68.4214 17.2969 147.04C17.2969 225.659 81.0298 289.392 159.648 289.392Z" fill="url(#paint0_linear_573_108)"/>
<path d="M259.882 72.1664C254.997 68.5785 249.818 65.2873 244.39 62.2987C241.401 56.8704 238.11 51.6914 234.522 46.8067C214.597 19.6818 188.005 4.74341 159.649 4.74341C131.291 4.74341 104.701 19.6818 84.775 46.8067C81.1866 51.6914 77.8959 56.871 74.9073 62.2987C69.479 65.2873 64.3 68.5779 59.4153 72.1664C32.2904 92.0925 17.3521 118.683 17.3521 147.04C17.3521 175.397 32.2904 201.988 59.4153 221.913C64.3 225.502 69.4796 228.792 74.9073 231.781C77.8959 237.209 81.1866 242.388 84.775 247.273C104.701 274.398 131.291 289.336 159.649 289.336C188.005 289.336 214.597 274.398 234.522 247.273C238.11 242.388 241.401 237.209 244.39 231.78C249.818 228.792 254.998 225.501 259.882 221.913C287.007 201.987 301.945 175.397 301.945 147.039C301.945 118.682 287.007 92.0925 259.882 72.1664ZM159.649 282.638C151.834 282.638 143.551 270.997 137.002 251.133C144.424 252.006 151.99 252.459 159.649 252.459C167.308 252.459 174.873 252.006 182.295 251.133C175.746 270.997 167.463 282.638 159.649 282.638ZM159.649 245.76C151.182 245.76 142.896 245.187 134.855 244.1C130.392 228.321 127.152 209.379 125.298 188.699C136.399 189.492 147.916 189.901 159.649 189.901C171.382 189.901 182.898 189.492 193.999 188.699C192.146 209.379 188.905 228.321 184.443 244.1C176.401 245.187 168.116 245.76 159.649 245.76ZM159.649 11.4425C167.463 11.4425 175.746 23.0837 182.295 42.947C174.873 42.0736 167.308 41.6212 159.649 41.6212C151.99 41.6212 144.424 42.0736 137.002 42.947C143.551 23.0831 151.834 11.4425 159.649 11.4425ZM159.649 48.3202C168.116 48.3202 176.401 48.8934 184.443 49.9801C188.905 65.7598 192.146 84.7012 193.999 105.382C182.898 104.588 171.382 104.179 159.649 104.179C147.916 104.179 136.399 104.588 125.298 105.382C127.152 84.7012 130.392 65.7598 134.855 49.9801C142.896 48.8934 151.182 48.3202 159.649 48.3202ZM123.486 147.04C123.486 135.096 123.916 123.392 124.746 112.138C136 111.307 147.704 110.877 159.649 110.877C171.592 110.877 183.297 111.307 194.551 112.138C195.381 123.392 195.812 135.095 195.812 147.04C195.812 158.984 195.381 170.688 194.551 181.942C183.297 182.772 171.592 183.202 159.649 183.202C147.705 183.202 136 182.772 124.746 181.942C123.916 170.689 123.486 158.984 123.486 147.04ZM117.99 181.39C97.3092 179.537 78.3673 176.297 62.5881 171.833C61.5021 163.792 60.9283 155.507 60.9283 147.04C60.9283 138.573 61.5015 130.288 62.5881 122.246C78.3673 117.784 97.3092 114.544 117.99 112.689C117.196 123.79 116.787 135.307 116.787 147.04C116.787 158.773 117.196 170.29 117.99 181.39ZM201.308 112.69C221.988 114.544 240.93 117.784 256.71 122.247C257.796 130.288 258.369 138.574 258.369 147.04C258.369 155.507 257.796 163.793 256.71 171.834C240.93 176.297 221.988 179.537 201.308 181.391C202.101 170.29 202.511 158.773 202.511 147.04C202.511 135.307 202.101 123.791 201.308 112.69ZM200.771 105.918C199.007 85.6474 195.932 66.9554 191.699 51.1134C209.168 54.2075 225.322 59.7702 239.424 67.2651C246.919 81.3673 252.482 97.5208 255.576 114.989C239.734 110.757 221.042 107.682 200.771 105.918ZM118.526 105.918C98.2555 107.682 79.5635 110.757 63.7215 114.989C66.8155 97.5208 72.3782 81.3673 79.8732 67.2651C93.9754 59.7702 110.129 54.2075 127.597 51.1134C123.365 66.9554 120.291 85.6474 118.526 105.918ZM55.5551 169.686C35.6917 163.138 24.0505 154.855 24.0505 147.04C24.0505 139.225 35.6912 130.942 55.5551 124.393C54.6822 131.816 54.2292 139.381 54.2292 147.04C54.2292 154.699 54.6822 162.264 55.5551 169.686ZM118.526 188.162C120.29 208.433 123.365 227.125 127.597 242.967C110.129 239.873 93.9754 234.31 79.8732 226.815C72.3782 212.713 66.8155 196.56 63.7215 179.091C79.5641 183.323 98.2561 186.398 118.526 188.162ZM200.771 188.162C221.042 186.398 239.734 183.323 255.576 179.091C252.482 196.56 246.919 212.713 239.424 226.815C225.322 234.311 209.168 239.873 191.699 242.967C195.932 227.125 199.007 208.432 200.771 188.162ZM263.742 124.394C283.605 130.943 295.246 139.225 295.246 147.04C295.246 154.855 283.605 163.138 263.742 169.687C264.615 162.265 265.067 154.699 265.067 147.04C265.068 139.381 264.615 131.816 263.742 124.394ZM293.664 131.954C287.11 126.365 276.72 121.34 262.731 117.041C260.294 101.617 255.982 86.9218 249.947 73.462C272.85 88.3755 288.778 108.855 293.664 131.954ZM233.228 56.7425C219.768 50.7066 205.072 46.3945 189.648 43.9578C185.349 29.9681 180.324 19.5781 174.735 13.0235C197.834 17.91 218.314 33.8384 233.228 56.7425ZM144.563 13.0241C138.973 19.5787 133.949 29.9687 129.65 43.9584C114.225 46.3945 99.5298 50.7066 86.0701 56.7425C100.984 33.8384 121.463 17.91 144.563 13.0241ZM69.3505 73.4614C63.3153 86.9212 59.0026 101.617 56.5665 117.041C42.5767 121.34 32.1868 126.365 25.6322 131.954C30.5181 108.855 46.4471 88.3755 69.3505 73.4614ZM25.6322 162.126C32.1868 167.716 42.5767 172.74 56.5665 177.039C59.0026 192.464 63.3153 207.159 69.3505 220.619C46.4471 205.705 30.5181 185.225 25.6322 162.126ZM86.0695 237.338C99.5292 243.374 114.225 247.686 129.649 250.122C133.948 264.112 138.973 274.502 144.562 281.056C121.463 276.17 100.984 260.241 86.0695 237.338ZM174.734 281.056C180.324 274.502 185.348 264.112 189.647 250.122C205.072 247.686 219.767 243.373 233.227 237.338C218.314 260.241 197.834 276.17 174.734 281.056ZM249.947 220.619C255.982 207.159 260.294 192.464 262.731 177.04C276.72 172.741 287.11 167.716 293.664 162.127C288.778 185.225 272.85 205.705 249.947 220.619Z" fill="url(#paint1_linear_573_108)"/>
<path d="M110.689 13.3356C75.0487 26.3903 46.0863 53.2902 30.3083 87.521C28.4382 91.5779 27.5127 96.006 27.5127 100.473C27.5127 108.794 30.8181 116.773 36.7012 122.657L39.6105 125.566C52.6486 138.604 70.3316 145.928 88.7701 145.928C91.5249 145.928 93.7579 143.695 93.7579 140.941C93.7579 138.187 91.5249 135.954 88.7701 135.954H73.4386C66.3677 135.954 60.635 130.221 60.635 123.15C60.635 116.079 66.3671 110.346 73.4386 110.346H85.4132C99.7718 110.346 113.542 104.643 123.695 94.4895L142.184 76.0006C146.21 71.9745 151.671 69.7125 157.364 69.7125C165.601 69.7125 173.112 65.0001 176.695 57.5834C181.086 48.4937 174.464 37.9397 164.37 37.9397H140.515C133.501 37.9397 127.815 32.2544 127.815 25.2403C127.815 16.39 119.001 10.2913 110.689 13.3356Z" fill="url(#paint2_linear_573_108)"/>
<path d="M298.686 116.369C296.72 107.417 288.716 101.086 279.552 101.086H259.485H248.758C230.526 101.086 215.747 115.865 215.747 134.097V138.114C215.747 154.128 228.728 167.109 244.742 167.109C252.884 167.109 259.485 173.71 259.485 181.852V220.351C259.485 230.383 272.511 234.38 278.086 226.039C289.673 208.707 297.554 188.685 300.6 167.109C301.521 160.555 302.001 153.851 302.001 147.041C302 136.509 300.856 126.247 298.686 116.369Z" fill="url(#paint3_linear_573_108)"/>
<path d="M223.327 19.7014C232.928 38.863 238.34 60.488 238.34 83.3796C238.34 161.998 174.607 225.731 95.9882 225.731C73.0966 225.731 51.4717 220.319 32.3101 210.718C55.6825 257.365 103.922 289.392 159.649 289.392C238.267 289.392 302 225.659 302 147.04C302 91.3133 269.973 43.0738 223.327 19.7014Z" fill="url(#paint4_linear_573_108)"/>
<path d="M231.495 88.2175C224.358 81.0802 206.616 86.9828 172.839 118.531L153.101 116.098L146.725 109.52C143.317 106.112 137.792 106.112 134.384 109.52C133.569 110.335 132.958 111.273 132.535 112.272L127.459 107.165C124.051 103.757 118.526 103.757 115.118 107.165C113.978 108.305 113.229 109.683 112.852 111.138L105.217 110.197C103.397 109.973 101.308 110.805 99.7293 112.385L86.6628 125.451C85.2837 126.83 85.2902 128.817 86.6764 129.414L125.999 167.841C114.535 181.177 104.06 194.365 96.0183 205.73L76.4428 203.073C75.6564 202.967 74.748 203.324 74.0623 204.01L67.9643 210.108C66.7871 211.285 66.6816 212.974 67.7434 213.656L82.4449 227.922C79.9768 233.32 79.2964 237.145 80.9325 238.781L128.01 285.858C138.185 288.168 148.773 289.392 159.648 289.392C234.483 289.392 295.827 231.645 301.559 158.281L231.495 88.2175Z" fill="url(#paint5_linear_573_108)"/>
<path d="M121.289 122.06C126.108 122.06 130.015 118.154 130.015 113.334C130.015 108.515 126.108 104.608 121.289 104.608C116.469 104.608 112.562 108.515 112.562 113.334C112.562 118.154 116.469 122.06 121.289 122.06Z" fill="url(#paint6_linear_573_108)"/>
<path d="M121.288 120.617C125.311 120.617 128.571 117.357 128.571 113.334C128.571 109.312 125.311 106.052 121.288 106.052C117.266 106.052 114.005 109.312 114.005 113.334C114.005 117.357 117.266 120.617 121.288 120.617Z" fill="url(#paint7_linear_573_108)"/>
<path d="M129.568 110.575C129.154 111.821 128.451 112.993 127.459 113.986C124.051 117.394 118.526 117.394 115.118 113.986C114.126 112.993 113.424 111.821 113.009 110.575C112 113.61 112.703 117.089 115.118 119.505C118.526 122.913 124.051 122.913 127.459 119.505C129.874 117.089 130.577 113.61 129.568 110.575Z" fill="url(#paint8_linear_573_108)"/>
<path d="M121.289 122.06C126.108 122.06 130.015 118.154 130.015 113.334C130.015 108.515 126.108 104.608 121.289 104.608C116.469 104.608 112.562 108.515 112.562 113.334C112.562 118.154 116.469 122.06 121.289 122.06Z" fill="url(#paint9_linear_573_108)"/>
<path d="M146.725 121.86C143.317 125.267 137.792 125.267 134.384 121.86C130.976 118.452 130.976 112.927 134.384 109.519C137.792 106.111 143.317 106.111 146.725 109.519C150.132 112.927 150.132 118.452 146.725 121.86Z" fill="url(#paint10_linear_573_108)"/>
<path d="M140.554 122.973C144.577 122.973 147.837 119.712 147.837 115.69C147.837 111.668 144.577 108.407 140.554 108.407C136.532 108.407 133.271 111.668 133.271 115.69C133.271 119.712 136.532 122.973 140.554 122.973Z" fill="url(#paint11_linear_573_108)"/>
<path d="M148.834 112.931C148.419 114.177 147.716 115.349 146.724 116.341C143.317 119.749 137.792 119.749 134.384 116.341C133.391 115.349 132.689 114.177 132.275 112.931C131.266 115.965 131.969 119.445 134.384 121.86C137.792 125.268 143.317 125.268 146.724 121.86C149.14 119.444 149.843 115.965 148.834 112.931Z" fill="url(#paint12_linear_573_108)"/>
<path d="M146.725 121.86C143.317 125.267 137.792 125.267 134.384 121.86C130.976 118.452 130.976 112.927 134.384 109.519C137.792 106.111 143.317 106.111 146.725 109.519C150.132 112.927 150.132 118.452 146.725 121.86Z" fill="url(#paint13_linear_573_108)"/>
<path d="M206.378 207.151C211.198 207.151 215.104 203.244 215.104 198.425C215.104 193.606 211.198 189.699 206.378 189.699C201.559 189.699 197.652 193.606 197.652 198.425C197.652 203.244 201.559 207.151 206.378 207.151Z" fill="url(#paint14_linear_573_108)"/>
<path d="M206.379 205.708C210.401 205.708 213.662 202.447 213.662 198.425C213.662 194.403 210.401 191.142 206.379 191.142C202.356 191.142 199.096 194.403 199.096 198.425C199.096 202.447 202.356 205.708 206.379 205.708Z" fill="url(#paint15_linear_573_108)"/>
<path d="M209.138 190.145C207.891 190.559 206.72 191.262 205.727 192.254C202.319 195.662 202.319 201.187 205.727 204.595C206.72 205.587 207.891 206.289 209.138 206.704C206.103 207.713 202.624 207.01 200.208 204.595C196.8 201.187 196.8 195.662 200.208 192.254C202.624 189.839 206.103 189.136 209.138 190.145Z" fill="url(#paint16_linear_573_108)"/>
<path d="M206.378 207.151C211.198 207.151 215.104 203.244 215.104 198.425C215.104 193.606 211.198 189.699 206.378 189.699C201.559 189.699 197.652 193.606 197.652 198.425C197.652 203.244 201.559 207.151 206.378 207.151Z" fill="url(#paint17_linear_573_108)"/>
<path d="M197.853 172.989C194.445 176.397 194.445 181.922 197.853 185.33C201.261 188.737 206.786 188.737 210.194 185.33C213.602 181.922 213.602 176.397 210.194 172.989C206.786 169.581 201.261 169.581 197.853 172.989Z" fill="url(#paint18_linear_573_108)"/>
<path d="M204.024 186.442C208.046 186.442 211.307 183.181 211.307 179.159C211.307 175.137 208.046 171.876 204.024 171.876C200.001 171.876 196.741 175.137 196.741 179.159C196.741 183.181 200.001 186.442 204.024 186.442Z" fill="url(#paint19_linear_573_108)"/>
<path d="M206.783 170.879C205.537 171.294 204.365 171.997 203.372 172.988C199.964 176.396 199.964 181.921 203.372 185.329C204.365 186.321 205.537 187.024 206.783 187.438C203.748 188.447 200.269 187.744 197.853 185.329C194.445 181.921 194.445 176.396 197.853 172.988C200.269 170.573 203.748 169.871 206.783 170.879Z" fill="url(#paint20_linear_573_108)"/>
<path d="M197.853 172.989C194.445 176.397 194.445 181.922 197.853 185.33C201.261 188.737 206.786 188.737 210.194 185.33C213.602 181.922 213.602 176.397 210.194 172.989C206.786 169.581 201.261 169.581 197.853 172.989Z" fill="url(#paint21_linear_573_108)"/>
<path d="M67.7431 213.655L86.447 225.673L105.15 206.969L76.4425 203.074C75.6561 202.967 74.7478 203.324 74.0621 204.01L67.964 210.108C66.7868 211.285 66.682 212.973 67.7431 213.655Z" fill="url(#paint22_linear_573_108)"/>
<path d="M69.7886 208.283L67.9647 210.107C66.7875 211.284 66.6821 212.973 67.7439 213.655L86.4477 225.672L100.877 211.243L72.1691 207.347C71.3827 207.24 70.4743 207.598 69.7886 208.283Z" fill="url(#paint23_linear_573_108)"/>
<path d="M106.058 251.97L94.0405 233.266L112.744 214.562L116.64 243.27C116.746 244.057 116.389 244.966 115.704 245.651L109.606 251.749C108.428 252.926 106.74 253.031 106.058 251.97Z" fill="url(#paint24_linear_573_108)"/>
<path d="M111.43 249.924L109.606 251.748C108.429 252.925 106.74 253.031 106.058 251.969L94.0405 233.265L108.47 218.836L112.365 247.544C112.473 248.33 112.115 249.239 111.43 249.924Z" fill="url(#paint25_linear_573_108)"/>
<path d="M86.6762 129.414L146.195 155.065L181.644 119.616L105.217 110.198C103.397 109.973 101.308 110.806 99.7291 112.385L86.6626 125.452C85.284 126.83 85.2906 128.816 86.6762 129.414Z" fill="url(#paint26_linear_573_108)"/>
<path d="M91.3074 120.806L86.6625 125.451C85.2834 126.83 85.2899 128.817 86.6762 129.414L146.195 155.065L173.222 128.038L96.7955 118.619C94.9752 118.394 92.8867 119.227 91.3074 120.806Z" fill="url(#paint27_linear_573_108)"/>
<path d="M125.322 122.135L96.7955 118.619C94.9752 118.394 92.8867 119.227 91.3074 120.806L86.6625 125.451C85.2834 126.83 85.2899 128.817 86.6762 129.414L108.596 138.861L125.322 122.135Z" fill="url(#paint28_linear_573_108)"/>
<path d="M86.6761 129.414L146.195 155.065L158.385 142.875L92.4011 119.713L86.6631 125.451C85.284 126.83 85.2905 128.816 86.6761 129.414Z" fill="url(#paint29_linear_573_108)"/>
<path d="M190.299 233.037L164.648 173.518L200.097 138.069L209.516 214.496C209.74 216.316 208.907 218.405 207.328 219.984L194.262 233.05C192.883 234.429 190.896 234.422 190.299 233.037Z" fill="url(#paint30_linear_573_108)"/>
<path d="M198.906 228.405L194.262 233.05C192.882 234.429 190.896 234.423 190.299 233.037L164.648 173.518L191.676 146.49L201.094 222.917C201.318 224.738 200.486 226.826 198.906 228.405Z" fill="url(#paint31_linear_573_108)"/>
<path d="M197.579 194.391L201.095 222.917C201.319 224.737 200.487 226.826 198.907 228.405L194.262 233.05C192.883 234.429 190.897 234.423 190.3 233.037L180.853 211.117L197.579 194.391Z" fill="url(#paint32_linear_573_108)"/>
<path d="M190.299 233.037L164.648 173.518L176.839 161.328L200 227.312L194.262 233.05C192.883 234.429 190.896 234.422 190.299 233.037Z" fill="url(#paint33_linear_573_108)"/>
<path d="M189.685 158.75C148.109 200.327 88.864 246.711 80.9327 238.78C73.0013 230.849 119.386 171.605 160.963 130.027C202.539 88.4509 223.564 80.2857 231.495 88.217C239.427 96.149 231.262 117.173 189.685 158.75Z" fill="url(#paint34_linear_573_108)"/>
<path d="M186.604 157.535C147.058 197.081 91.354 241.849 84.6093 235.104C77.8647 228.359 122.632 172.656 162.178 133.109C201.725 93.5623 221.075 85.1483 227.82 91.893C234.565 98.6383 226.15 117.988 186.604 157.535Z" fill="url(#paint35_linear_573_108)"/>
<path d="M189.685 158.75C231.262 117.173 239.427 96.1489 231.496 88.2175L80.9326 238.781C88.8646 246.712 148.109 200.327 189.685 158.75Z" fill="url(#paint36_linear_573_108)"/>
<path d="M196.083 103.639C193.537 105.856 190.865 108.243 188.063 110.808C187.347 111.464 187.412 112.482 188.187 112.621C192.98 113.485 197.308 115.585 200.718 118.995C204.128 122.405 206.228 126.733 207.092 131.526C207.231 132.301 208.249 132.366 208.905 131.65C211.47 128.848 213.857 126.176 216.074 123.63C217.583 121.896 218.233 119.716 217.744 117.956C216.676 114.111 214.743 110.642 211.907 107.806C209.071 104.97 205.601 103.036 201.757 101.968C199.997 101.479 197.817 102.13 196.083 103.639Z" fill="url(#paint37_linear_573_108)"/>
<path d="M216.072 123.629C214.124 125.873 212.039 128.212 209.819 130.652C209.517 130.984 209.215 131.315 208.907 131.653C208.25 132.369 207.231 132.304 207.089 131.528C206.23 126.732 204.128 122.403 200.717 118.992C200.516 118.791 200.315 118.596 200.108 118.412C197.686 116.168 194.843 114.545 191.729 113.515C194.529 110.963 197.188 108.582 199.729 106.374C201.464 104.864 203.643 104.212 205.401 104.704C207.492 105.284 209.47 106.119 211.299 107.22C211.507 107.41 211.708 107.605 211.909 107.807C214.746 110.643 216.676 114.113 217.742 117.956C218.233 119.715 217.582 121.894 216.072 123.629Z" fill="url(#paint38_linear_573_108)"/>
<path d="M207.092 131.526C207.231 132.301 208.249 132.366 208.905 131.65C211.47 128.848 213.857 126.176 216.074 123.63C217.583 121.897 218.233 119.716 217.745 117.956C216.676 114.111 214.743 110.642 211.907 107.806L200.718 118.995C204.128 122.405 206.228 126.733 207.092 131.526Z" fill="url(#paint39_linear_573_108)"/>
<path d="M94.9051 226.059L93.6538 224.808C92.6075 223.762 92.9663 221.75 94.4343 220.436L116.045 201.09C116.994 200.241 118.253 200.106 118.929 200.784C119.606 201.46 119.472 202.719 118.622 203.668L99.2764 225.279C97.963 226.746 95.9514 227.105 94.9051 226.059Z" fill="url(#paint40_linear_573_108)"/>
<path d="M18.9218 270.273C17.6794 270.273 16.4839 270.197 15.344 270.047C13.741 269.836 12.6905 268.263 13.1228 266.705L14.3083 262.426C14.6506 261.191 15.8242 260.372 17.0991 260.497C19.4938 260.731 22.4641 260.472 25.8767 259.726C27.2564 259.424 28.6326 260.261 28.9997 261.625L30.142 265.867C30.5369 267.334 29.6161 268.821 28.1322 269.151C24.78 269.896 21.6913 270.273 18.9218 270.273ZM40.1707 262.47L38.5275 258.402C37.9875 257.064 38.6134 255.547 39.938 254.977C42.9166 253.695 46.0698 252.196 49.3586 250.5C50.646 249.837 52.2312 250.328 52.9128 251.607L54.977 255.477C55.6734 256.783 55.1624 258.408 53.8472 259.087C50.3055 260.914 46.8982 262.532 43.668 263.919C42.3043 264.506 40.7274 263.848 40.1707 262.47ZM4.273 259.077C2.77189 259.713 1.04575 258.861 0.661439 257.276C0.222059 255.461 0 253.48 0 251.351C0 249.111 0.245745 246.66 0.73309 244.038C1.01081 242.542 2.47877 241.576 3.95857 241.928L8.23157 242.944C9.59649 243.268 10.4764 244.605 10.2254 245.986C9.86889 247.949 9.68887 249.746 9.68887 251.35C9.68887 252.465 9.77592 253.483 9.94705 254.394C10.1786 255.624 9.53491 256.847 8.38198 257.336L4.273 259.077ZM64.0702 250.358L61.8342 246.584C61.0946 245.335 61.4931 243.724 62.7343 242.972C65.6619 241.198 68.6795 239.295 71.7499 237.286C72.9662 236.49 74.5981 236.828 75.4035 238.038L77.8337 241.69C78.6509 242.918 78.3056 244.575 77.0716 245.382C73.8929 247.463 70.7651 249.435 67.7279 251.274C66.4649 252.039 64.8228 251.629 64.0702 250.358ZM90.1251 236.441C88.926 237.297 87.2596 237.019 86.4111 235.815ZM11.2297 233.376L7.1349 231.801C5.74688 231.267 5.06294 229.698 5.62964 228.323C6.96791 225.076 8.54778 221.642 10.3491 218.064C11.0147 216.742 12.636 216.214 13.9488 216.899L17.8387 218.928C19.1225 219.598 19.6288 221.176 18.978 222.469C17.3147 225.775 15.8591 228.936 14.6286 231.913C14.0785 233.245 12.5739 233.894 11.2297 233.376ZM22.7862 209.974L18.9964 207.764C17.7221 207.022 17.2969 205.384 18.0519 204.117C18.0762 204.077 18.1005 204.036 18.1241 203.996C18.8797 202.73 20.5259 202.321 21.7843 203.089L25.5291 205.374C26.7702 206.132 27.1676 207.749 26.422 208.998C26.4132 209.013 26.4037 209.028 26.3948 209.044C25.6505 210.292 24.0422 210.706 22.7862 209.974ZM235.996 85.8932L232.402 83.3777C231.21 82.5434 230.912 80.9025 231.738 79.7052C233.814 76.6952 235.803 73.7214 237.678 70.8216C238.468 69.6012 240.093 69.2506 241.32 70.0293L245.023 72.3808C246.268 73.1713 246.629 74.8228 245.827 76.061C243.893 79.0532 241.843 82.1188 239.703 85.2205C238.866 86.4339 237.203 86.7382 235.996 85.8932ZM250.45 63.4889L246.664 61.2731C245.412 60.5406 244.981 58.9341 245.7 57.6746C247.529 54.4686 249.202 51.3598 250.698 48.3866C251.349 47.0945 252.912 46.5675 254.215 47.1969L258.165 49.106C259.499 49.7509 260.049 51.3592 259.383 52.6833C257.798 55.8347 256.03 59.1236 254.098 62.5077C253.364 63.791 251.725 64.2351 250.45 63.4889ZM262.372 39.4805L258.284 37.8882C256.942 37.3654 256.272 35.866 256.757 34.51C258 31.0393 258.889 27.8672 259.414 25.0313C259.668 23.6634 260.941 22.7343 262.323 22.8954L266.689 23.4058C268.204 23.5829 269.264 24.9976 268.994 26.4987C268.371 29.9675 267.313 33.787 265.832 37.909C265.327 39.3112 263.759 40.0212 262.372 39.4805ZM226.27 14.5655L224.455 10.5703C223.842 9.22132 224.454 7.62546 225.815 7.03863C229.637 5.39125 233.247 4.0512 236.597 3.03387C238.042 2.59568 239.56 3.43654 239.943 4.8968L241.056 9.14316C241.416 10.5152 240.636 11.9304 239.279 12.3449C236.338 13.2433 233.144 14.4329 229.736 15.8991C228.41 16.4693 226.867 15.8795 226.27 14.5655ZM261.356 13.8869C260.275 14.3026 259.027 13.987 258.33 13.0621C258.17 12.8483 257.996 12.6487 257.81 12.4622C256.377 11.0298 254.009 10.3014 250.772 10.2967H250.681V0.608398V5.45283L250.686 3.38739C250.69 1.82765 252.037 0.59241 253.589 0.750516C258.192 1.2195 261.897 2.84912 264.66 5.61094C265.502 6.4524 266.243 7.39156 266.879 8.41895C267.747 9.82355 267.1 11.6764 265.559 12.2692L261.356 13.8869Z" fill="url(#paint41_linear_573_108)"/>
<path d="M98.0292 48.8296C102.599 48.8296 106.304 45.1249 106.304 40.5548C106.304 35.9848 102.599 32.28 98.0292 32.28C93.4591 32.28 89.7544 35.9848 89.7544 40.5548C89.7544 45.1249 93.4591 48.8296 98.0292 48.8296Z" fill="url(#paint42_linear_573_108)"/>
<path d="M53.9423 110.083C58.5123 110.083 62.2171 106.378 62.2171 101.808C62.2171 97.238 58.5123 93.5332 53.9423 93.5332C49.3722 93.5332 45.6675 97.238 45.6675 101.808C45.6675 106.378 49.3722 110.083 53.9423 110.083Z" fill="url(#paint43_linear_573_108)"/>
<path d="M279.567 131.247C284.137 131.247 287.842 127.542 287.842 122.972C287.842 118.402 284.137 114.698 279.567 114.698C274.997 114.698 271.292 118.402 271.292 122.972C271.292 127.542 274.997 131.247 279.567 131.247Z" fill="url(#paint44_linear_573_108)"/>
<defs>
<linearGradient id="paint0_linear_573_108" x1="90.7137" y1="78.1059" x2="263.248" y2="250.64" gradientUnits="userSpaceOnUse">
<stop stop-color="#00AEFC"/>
<stop offset="1" stop-color="#3F3CEE"/>
</linearGradient>
<linearGradient id="paint1_linear_573_108" x1="181.406" y1="303.764" x2="130.184" y2="-65.2022" gradientUnits="userSpaceOnUse">
<stop stop-color="#00AEFC" stop-opacity="0"/>
<stop offset="1" stop-color="#18CFFC"/>
</linearGradient>
<linearGradient id="paint2_linear_573_108" x1="114.929" y1="89.9803" x2="339.217" y2="249.122" gradientUnits="userSpaceOnUse">
<stop stop-color="#E5F3FF"/>
<stop offset="1" stop-color="#B3CCFF"/>
</linearGradient>
<linearGradient id="paint3_linear_573_108" x1="237.363" y1="159.183" x2="337.874" y2="176.865" gradientUnits="userSpaceOnUse">
<stop stop-color="#E5F3FF"/>
<stop offset="1" stop-color="#B3CCFF"/>
</linearGradient>
<linearGradient id="paint4_linear_573_108" x1="206.652" y1="118.905" x2="311.286" y2="-85.5189" gradientUnits="userSpaceOnUse">
<stop stop-color="#3F3CEE" stop-opacity="0"/>
<stop offset="1" stop-color="#2F43BC"/>
</linearGradient>
<linearGradient id="paint5_linear_573_108" x1="221.722" y1="229.007" x2="149.275" y2="156.56" gradientUnits="userSpaceOnUse">
<stop stop-color="#3F3CEE" stop-opacity="0"/>
<stop offset="1" stop-color="#2F43BC"/>
</linearGradient>
<linearGradient id="paint6_linear_573_108" x1="121.382" y1="108.642" x2="121.382" y2="124.623" gradientUnits="userSpaceOnUse">
<stop stop-color="#F9F7FC"/>
<stop offset="1" stop-color="#F0DDFC"/>
</linearGradient>
<linearGradient id="paint7_linear_573_108" x1="121.382" y1="117.29" x2="121.382" y2="106.124" gradientUnits="userSpaceOnUse">
<stop stop-color="#E9EDF5" stop-opacity="0"/>
<stop offset="1" stop-color="white"/>
</linearGradient>
<linearGradient id="paint8_linear_573_108" x1="119.232" y1="115.837" x2="143.485" y2="108.546" gradientUnits="userSpaceOnUse">
<stop stop-color="#F0DDFC" stop-opacity="0"/>
<stop offset="0.2889" stop-color="#C8B7E0" stop-opacity="0.289"/>
<stop offset="0.5915" stop-color="#A595C8" stop-opacity="0.592"/>
<stop offset="0.8395" stop-color="#8F81B8" stop-opacity="0.84"/>
<stop offset="1" stop-color="#8779B3"/>
</linearGradient>
<linearGradient id="paint9_linear_573_108" x1="122.172" y1="108.845" x2="120.742" y2="116.838" gradientUnits="userSpaceOnUse">
<stop stop-color="#F0DDFC" stop-opacity="0"/>
<stop offset="0.2889" stop-color="#C8B7E0" stop-opacity="0.289"/>
<stop offset="0.5915" stop-color="#A595C8" stop-opacity="0.592"/>
<stop offset="0.8395" stop-color="#8F81B8" stop-opacity="0.84"/>
<stop offset="1" stop-color="#8779B3"/>
</linearGradient>
<linearGradient id="paint10_linear_573_108" x1="140.646" y1="110.997" x2="140.645" y2="126.977" gradientUnits="userSpaceOnUse">
<stop stop-color="#F9F7FC"/>
<stop offset="1" stop-color="#F0DDFC"/>
</linearGradient>
<linearGradient id="paint11_linear_573_108" x1="140.646" y1="119.645" x2="140.645" y2="108.479" gradientUnits="userSpaceOnUse">
<stop stop-color="#E9EDF5" stop-opacity="0"/>
<stop offset="1" stop-color="white"/>
</linearGradient>
<linearGradient id="paint12_linear_573_108" x1="138.495" y1="118.192" x2="162.747" y2="110.901" gradientUnits="userSpaceOnUse">
<stop stop-color="#F0DDFC" stop-opacity="0"/>
<stop offset="0.2889" stop-color="#C8B7E0" stop-opacity="0.289"/>
<stop offset="0.5915" stop-color="#A595C8" stop-opacity="0.592"/>
<stop offset="0.8395" stop-color="#8F81B8" stop-opacity="0.84"/>
<stop offset="1" stop-color="#8779B3"/>
</linearGradient>
<linearGradient id="paint13_linear_573_108" x1="141.435" y1="111.2" x2="140.005" y2="119.192" gradientUnits="userSpaceOnUse">
<stop stop-color="#F0DDFC" stop-opacity="0"/>
<stop offset="0.2889" stop-color="#C8B7E0" stop-opacity="0.289"/>
<stop offset="0.5915" stop-color="#A595C8" stop-opacity="0.592"/>
<stop offset="0.8395" stop-color="#8F81B8" stop-opacity="0.84"/>
<stop offset="1" stop-color="#8779B3"/>
</linearGradient>
<linearGradient id="paint14_linear_573_108" x1="211.091" y1="198.351" x2="195.11" y2="198.351" gradientUnits="userSpaceOnUse">
<stop stop-color="#F9F7FC"/>
<stop offset="1" stop-color="#F0DDFC"/>
</linearGradient>
<linearGradient id="paint15_linear_573_108" x1="202.443" y1="198.351" x2="213.61" y2="198.351" gradientUnits="userSpaceOnUse">
<stop stop-color="#E9EDF5" stop-opacity="0"/>
<stop offset="1" stop-color="white"/>
</linearGradient>
<linearGradient id="paint16_linear_573_108" x1="203.896" y1="200.501" x2="211.188" y2="176.249" gradientUnits="userSpaceOnUse">
<stop stop-color="#F0DDFC" stop-opacity="0"/>
<stop offset="0.2889" stop-color="#C8B7E0" stop-opacity="0.289"/>
<stop offset="0.5915" stop-color="#A595C8" stop-opacity="0.592"/>
<stop offset="0.8395" stop-color="#8F81B8" stop-opacity="0.84"/>
<stop offset="1" stop-color="#8779B3"/>
</linearGradient>
<linearGradient id="paint17_linear_573_108" x1="210.888" y1="197.562" x2="202.896" y2="198.991" gradientUnits="userSpaceOnUse">
<stop stop-color="#F0DDFC" stop-opacity="0"/>
<stop offset="0.2889" stop-color="#C8B7E0" stop-opacity="0.289"/>
<stop offset="0.5915" stop-color="#A595C8" stop-opacity="0.592"/>
<stop offset="0.8395" stop-color="#8F81B8" stop-opacity="0.84"/>
<stop offset="1" stop-color="#8779B3"/>
</linearGradient>
<linearGradient id="paint18_linear_573_108" x1="208.736" y1="179.088" x2="192.756" y2="179.088" gradientUnits="userSpaceOnUse">
<stop stop-color="#F9F7FC"/>
<stop offset="1" stop-color="#F0DDFC"/>
</linearGradient>
<linearGradient id="paint19_linear_573_108" x1="200.089" y1="179.088" x2="211.255" y2="179.088" gradientUnits="userSpaceOnUse">
<stop stop-color="#E9EDF5" stop-opacity="0"/>
<stop offset="1" stop-color="white"/>
</linearGradient>
<linearGradient id="paint20_linear_573_108" x1="201.541" y1="181.238" x2="208.833" y2="156.986" gradientUnits="userSpaceOnUse">
<stop stop-color="#F0DDFC" stop-opacity="0"/>
<stop offset="0.2889" stop-color="#C8B7E0" stop-opacity="0.289"/>
<stop offset="0.5915" stop-color="#A595C8" stop-opacity="0.592"/>
<stop offset="0.8395" stop-color="#8F81B8" stop-opacity="0.84"/>
<stop offset="1" stop-color="#8779B3"/>
</linearGradient>
<linearGradient id="paint21_linear_573_108" x1="208.533" y1="178.299" x2="200.54" y2="179.728" gradientUnits="userSpaceOnUse">
<stop stop-color="#F0DDFC" stop-opacity="0"/>
<stop offset="0.2889" stop-color="#C8B7E0" stop-opacity="0.289"/>
<stop offset="0.5915" stop-color="#A595C8" stop-opacity="0.592"/>
<stop offset="0.8395" stop-color="#8F81B8" stop-opacity="0.84"/>
<stop offset="1" stop-color="#8779B3"/>
</linearGradient>
<linearGradient id="paint22_linear_573_108" x1="86.3962" y1="207.962" x2="84.3469" y2="221.662" gradientUnits="userSpaceOnUse">
<stop stop-color="#FFDA45"/>
<stop offset="0.3043" stop-color="#FFCE3E"/>
<stop offset="0.8558" stop-color="#FFAE2B"/>
<stop offset="1" stop-color="#FFA425"/>
</linearGradient>
<linearGradient id="paint23_linear_573_108" x1="81.6781" y1="213.489" x2="102.012" y2="192.715" gradientUnits="userSpaceOnUse">
<stop stop-color="#FFDA45" stop-opacity="0"/>
<stop offset="1" stop-color="#B53759"/>
</linearGradient>
<linearGradient id="paint24_linear_573_108" x1="111.78" y1="233.346" x2="98.0811" y2="235.396" gradientUnits="userSpaceOnUse">
<stop stop-color="#FFDA45"/>
<stop offset="0.3043" stop-color="#FFCE3E"/>
<stop offset="0.8558" stop-color="#FFAE2B"/>
<stop offset="1" stop-color="#FFA425"/>
</linearGradient>
<linearGradient id="paint25_linear_573_108" x1="106.254" y1="238.064" x2="127.028" y2="217.73" gradientUnits="userSpaceOnUse">
<stop stop-color="#FFDA45" stop-opacity="0"/>
<stop offset="1" stop-color="#B53759"/>
</linearGradient>
<linearGradient id="paint26_linear_573_108" x1="136.801" y1="118.07" x2="115.542" y2="153.605" gradientUnits="userSpaceOnUse">
<stop stop-color="#FFDA45"/>
<stop offset="0.3043" stop-color="#FFCE3E"/>
<stop offset="0.8558" stop-color="#FFAE2B"/>
<stop offset="1" stop-color="#FFA425"/>
</linearGradient>
<linearGradient id="paint27_linear_573_108" x1="120.2" y1="141.257" x2="163.902" y2="76.1287" gradientUnits="userSpaceOnUse">
<stop stop-color="#FFDA45" stop-opacity="0"/>
<stop offset="1" stop-color="#B53759"/>
</linearGradient>
<linearGradient id="paint28_linear_573_108" x1="109.369" y1="129.965" x2="130.487" y2="156.449" gradientUnits="userSpaceOnUse">
<stop stop-color="#F0DDFC" stop-opacity="0"/>
<stop offset="0.2889" stop-color="#C8B7E0" stop-opacity="0.289"/>
<stop offset="0.5915" stop-color="#A595C8" stop-opacity="0.592"/>
<stop offset="0.8395" stop-color="#8F81B8" stop-opacity="0.84"/>
<stop offset="1" stop-color="#8779B3"/>
</linearGradient>
<linearGradient id="paint29_linear_573_108" x1="121.161" y1="136.617" x2="112.333" y2="153.012" gradientUnits="userSpaceOnUse">
<stop stop-color="#FFDA45" stop-opacity="0"/>
<stop offset="1" stop-color="#B53759"/>
</linearGradient>
<linearGradient id="paint30_linear_573_108" x1="201.662" y1="182.932" x2="166.128" y2="204.191" gradientUnits="userSpaceOnUse">
<stop stop-color="#FFDA45"/>
<stop offset="0.3043" stop-color="#FFCE3E"/>
<stop offset="0.8558" stop-color="#FFAE2B"/>
<stop offset="1" stop-color="#FFA425"/>
</linearGradient>
<linearGradient id="paint31_linear_573_108" x1="182.749" y1="196.665" x2="247.878" y2="152.964" gradientUnits="userSpaceOnUse">
<stop stop-color="#FFDA45" stop-opacity="0"/>
<stop offset="1" stop-color="#B53759"/>
</linearGradient>
<linearGradient id="paint32_linear_573_108" x1="192.252" y1="212.345" x2="165.769" y2="191.228" gradientUnits="userSpaceOnUse">
<stop stop-color="#FFDA45" stop-opacity="0"/>
<stop offset="1" stop-color="#B53759"/>
</linearGradient>
<linearGradient id="paint33_linear_573_108" x1="183.115" y1="198.572" x2="166.721" y2="207.4" gradientUnits="userSpaceOnUse">
<stop stop-color="#FFDA45" stop-opacity="0"/>
<stop offset="1" stop-color="#B53759"/>
</linearGradient>
<linearGradient id="paint34_linear_573_108" x1="150.401" y1="157.702" x2="168.374" y2="175.675" gradientUnits="userSpaceOnUse">
<stop stop-color="#E5F3FF"/>
<stop offset="1" stop-color="#B3CCFF"/>
</linearGradient>
<linearGradient id="paint35_linear_573_108" x1="162.855" y1="169.436" x2="137.281" y2="146.602" gradientUnits="userSpaceOnUse">
<stop stop-color="#E5F3FF" stop-opacity="0"/>
<stop offset="1" stop-color="white"/>
</linearGradient>
<linearGradient id="paint36_linear_573_108" x1="154.937" y1="186.622" x2="194.732" y2="-91.1707" gradientUnits="userSpaceOnUse">
<stop stop-color="#B3CCFF" stop-opacity="0"/>
<stop offset="1" stop-color="#9FB0CB"/>
</linearGradient>
<linearGradient id="paint37_linear_573_108" x1="197.543" y1="105.814" x2="213.194" y2="130.409" gradientUnits="userSpaceOnUse">
<stop stop-color="#8B788A"/>
<stop offset="1" stop-color="#6E566E"/>
</linearGradient>
<linearGradient id="paint38_linear_573_108" x1="205.442" y1="118.182" x2="201.297" y2="103.822" gradientUnits="userSpaceOnUse">
<stop stop-color="#8B788A" stop-opacity="0"/>
<stop offset="1" stop-color="#9E8C92"/>
</linearGradient>
<linearGradient id="paint39_linear_573_108" x1="208.656" y1="121.434" x2="218.493" y2="96.1213" gradientUnits="userSpaceOnUse">
<stop stop-color="#555A66" stop-opacity="0"/>
<stop offset="1" stop-color="#555A66"/>
</linearGradient>
<linearGradient id="paint40_linear_573_108" x1="106.127" y1="212.632" x2="108.258" y2="214.763" gradientUnits="userSpaceOnUse">
<stop stop-color="#E5F3FF"/>
<stop offset="1" stop-color="#B3CCFF"/>
</linearGradient>
<linearGradient id="paint41_linear_573_108" x1="0" y1="135.44" x2="269.036" y2="135.44" gradientUnits="userSpaceOnUse">
<stop stop-color="#FF7044"/>
<stop offset="1" stop-color="#F92814"/>
</linearGradient>
<linearGradient id="paint42_linear_573_108" x1="97.3879" y1="39.9141" x2="106.502" y2="49.028" gradientUnits="userSpaceOnUse">
<stop stop-color="#FF7044"/>
<stop offset="1" stop-color="#F92814"/>
</linearGradient>
<linearGradient id="paint43_linear_573_108" x1="50.442" y1="98.3078" x2="60.382" y2="108.248" gradientUnits="userSpaceOnUse">
<stop stop-color="#92F37F"/>
<stop offset="1" stop-color="#4AB272"/>
</linearGradient>
<linearGradient id="paint44_linear_573_108" x1="274.459" y1="117.865" x2="288.72" y2="132.126" gradientUnits="userSpaceOnUse">
<stop stop-color="#92F37F"/>
<stop offset="1" stop-color="#4AB272"/>
</linearGradient>
</defs>
</svg>
