<svg width="58" height="24" viewBox="0 0 58 24" fill="none" xmlns="http://www.w3.org/2000/svg">
<path d="M10.418 2.556V5.57H4.126V8.826H8.834V11.752H4.126V18H0.364V2.556H10.418ZM15.7173 1.72V18H11.9553V1.72H15.7173ZM30.5435 5.724L22.8435 23.83H18.7955L21.6115 17.582L16.6175 5.724H20.8195L23.6575 13.402L26.4735 5.724H30.5435ZM38.9659 18L35.2259 12.852V18H31.4639V1.72H35.2259V10.718L38.9439 5.724H43.5859L38.4819 11.884L43.6299 18H38.9659ZM46.5155 4.448C45.8555 4.448 45.3129 4.25733 44.8875 3.876C44.4769 3.48 44.2715 2.996 44.2715 2.424C44.2715 1.83733 44.4769 1.35333 44.8875 0.971999C45.3129 0.575999 45.8555 0.377999 46.5155 0.377999C47.1609 0.377999 47.6889 0.575999 48.0995 0.971999C48.5249 1.35333 48.7375 1.83733 48.7375 2.424C48.7375 2.996 48.5249 3.48 48.0995 3.876C47.6889 4.25733 47.1609 4.448 46.5155 4.448ZM48.3855 5.724V18H44.6235V5.724H48.3855ZM57.5138 14.81V18H55.5998C54.2358 18 53.1725 17.67 52.4098 17.01C51.6471 16.3353 51.2658 15.2427 51.2658 13.732V8.848H49.7698V5.724H51.2658V2.732H55.0278V5.724H57.4918V8.848H55.0278V13.776C55.0278 14.1427 55.1158 14.4067 55.2918 14.568C55.4678 14.7293 55.7611 14.81 56.1718 14.81H57.5138Z" fill="black"/>
</svg>
