<svg width="256" height="206" viewBox="0 0 256 206" fill="none" xmlns="http://www.w3.org/2000/svg">
<path d="M128 201.861C182.6 201.861 226.862 157.6 226.862 103C226.862 48.4002 182.6 4.13843 128 4.13843C73.4005 4.13843 29.1387 48.4002 29.1387 103C29.1387 157.6 73.4005 201.861 128 201.861Z" fill="#90D8F9"/>
<path d="M187.879 24.3369C200.549 40.9559 208.078 61.7054 208.078 84.2159C208.078 138.816 163.816 183.078 109.216 183.078C86.7054 183.078 65.9564 175.549 49.3374 162.879C67.3984 186.569 95.9114 201.861 128 201.861C182.6 201.861 226.862 157.599 226.862 102.999C226.861 70.9109 211.569 42.3979 187.879 24.3369Z" fill="#75CEF9"/>
<path d="M221.196 59.7474C213.057 42.2379 200.182 27.4024 183.961 16.8444C167.307 6.00489 147.956 0.275391 128 0.275391C108.044 0.275391 88.6931 6.00489 72.0391 16.8444C55.8181 27.4024 42.9421 42.2379 34.8041 59.7474C33.9051 61.6819 34.7441 63.9799 36.6791 64.8789C38.6141 65.7789 40.9111 64.9389 41.8106 63.0044C49.3376 46.8099 61.2481 33.0874 76.2541 23.3204C84.0901 18.2199 92.5741 14.3464 101.449 11.7694C99.5611 13.5249 97.7251 15.4749 95.9486 17.6164C87.1491 28.2219 80.1901 43.0294 75.8241 60.4364C75.3051 62.5064 76.5616 64.6044 78.6311 65.1234C80.6986 65.6449 82.7986 64.3854 83.3181 62.3164C91.0266 31.5864 106.77 10.9879 124.137 8.30439V61.3764C124.137 63.5104 125.866 65.2394 128 65.2394C130.133 65.2394 131.863 63.5099 131.863 61.3764V8.30339C149.23 10.9869 164.973 31.5854 172.681 62.3154C173.121 64.0694 174.695 65.2394 176.425 65.2394C176.736 65.2394 177.053 65.2019 177.368 65.1224C179.438 64.6034 180.694 62.5054 180.175 60.4354C175.809 43.0284 168.85 28.2209 160.051 17.6154C158.274 15.4744 156.438 13.5244 154.551 11.7684C163.425 14.3454 171.909 18.2189 179.745 23.3194C194.751 33.0864 206.661 46.8089 214.189 63.0034C214.843 64.4114 216.238 65.2394 217.695 65.2394C218.24 65.2394 218.794 65.1234 219.321 64.8784C221.256 63.9799 222.095 61.6819 221.196 59.7474Z" fill="#6BBEF6"/>
<path d="M219.321 141.121C217.385 140.221 215.089 141.061 214.189 142.995C206.662 159.19 194.752 172.912 179.746 182.679C171.91 187.78 163.426 191.653 154.551 194.23C156.439 192.475 158.275 190.525 160.051 188.383C168.851 177.778 175.81 162.97 180.176 145.563C180.695 143.493 179.438 141.395 177.369 140.876C175.302 140.356 173.201 141.614 172.682 143.683C164.973 174.413 149.23 195.012 131.863 197.695V144.624C131.863 142.49 130.134 140.761 128 140.761C125.867 140.761 124.137 142.49 124.137 144.624V197.696C106.77 195.012 91.0266 174.414 83.3186 143.684C82.7996 141.614 80.7011 140.356 78.6316 140.877C76.5621 141.396 75.3056 143.494 75.8246 145.564C80.1906 162.971 87.1496 177.778 95.9491 188.384C97.7256 190.525 99.5616 192.475 101.449 194.231C92.5746 191.654 84.0906 187.78 76.2546 182.68C61.2486 172.913 49.3386 159.19 41.8111 142.996C40.9116 141.061 38.6141 140.222 36.6796 141.121C34.7446 142.02 33.9056 144.318 34.8046 146.253C42.9431 163.762 55.8186 178.598 72.0396 189.156C88.6931 199.995 108.044 205.725 128 205.725C147.956 205.725 167.307 199.995 183.961 189.156C200.182 178.598 213.058 163.762 221.196 146.253C222.095 144.318 221.256 142.02 219.321 141.121Z" fill="#6BBEF6"/>
<path d="M0 132.848V73.1515C0 66.078 5.7345 60.3435 12.808 60.3435H243.192C250.266 60.3435 256 66.078 256 73.1515V132.848C256 139.922 250.266 145.656 243.192 145.656H12.808C5.7345 145.656 0 139.922 0 132.848Z" fill="#DD636E"/>
<path d="M243.192 60.3435H225.501C232.574 60.3435 238.309 66.078 238.309 73.1515V132.848C238.309 139.922 232.574 145.656 225.501 145.656H243.192C250.265 145.656 256 139.922 256 132.848V73.1515C256 66.078 250.265 60.3435 243.192 60.3435Z" fill="#DA4A54"/>
<path d="M68.245 78.324C66.1115 78.3445 64.3985 80.091 64.4195 82.2245L64.7005 111.313L43.1235 80.0685C42.1625 78.6775 40.4085 78.0735 38.795 78.5755C37.181 79.0785 36.0815 80.573 36.0815 82.2635V123.173C36.0815 125.307 37.811 127.036 39.9445 127.036C42.078 127.036 43.8075 125.306 43.8075 123.173V94.656L64.426 124.513C65.611 126.226 67.5685 126.96 69.412 126.384C71.305 125.793 72.5275 123.99 72.5275 121.754L72.1445 82.1495C72.1245 80.0165 70.3585 78.2975 68.245 78.324Z" fill="#E4F6FF"/>
<path d="M106.137 86.2375C108.271 86.2375 110 84.508 110 82.3745C110 80.2405 108.271 78.5115 106.137 78.5115H89.0251C86.8916 78.5115 85.1621 80.241 85.1621 82.3745V122.985C85.1621 125.119 86.8916 126.848 89.0251 126.848H106.137C108.271 126.848 110 125.119 110 122.985C110 120.852 108.271 119.122 106.137 119.122H92.8881V106.543H104.875C107.009 106.543 108.738 104.813 108.738 102.68C108.738 100.546 107.009 98.817 104.875 98.817H92.8881V86.238L106.137 86.2375Z" fill="#E4F6FF"/>
<path d="M208.618 99.3785C203.379 97.4455 198.516 95.336 197.25 94.78C196.016 93.866 195.419 92.413 195.644 90.841C195.932 88.8365 197.481 87.225 199.788 86.53C206.245 84.582 212.101 89.265 212.23 89.3695C213.863 90.7285 216.289 90.514 217.658 88.886C219.031 87.2525 218.82 84.8155 217.187 83.443C216.821 83.1355 208.111 75.954 197.56 79.1315C192.376 80.6935 188.712 84.7595 187.997 89.7425C187.33 94.389 189.342 98.8565 193.248 101.403C193.419 101.515 193.598 101.613 193.784 101.696C194.02 101.801 199.627 104.297 205.945 106.627C210.372 108.26 212.624 110.805 212.123 113.61C211.622 116.412 208.344 119.309 203.723 119.309C199.299 119.309 195.03 117.512 192.303 114.502C190.87 112.921 188.427 112.801 186.846 114.234C185.265 115.666 185.145 118.11 186.578 119.69C190.745 124.289 197.155 127.035 203.723 127.035C211.62 127.035 218.501 121.847 219.729 114.968C220.659 109.756 218.229 102.923 208.618 99.3785Z" fill="#E4F6FF"/>
<path d="M171.981 78.473C169.892 78.057 167.855 79.415 167.438 81.5075L161.716 110.259L152.718 81.049C152.09 79.01 149.927 77.8665 147.889 78.494C146.481 78.928 145.5 80.0935 145.235 81.4445L136.316 110.26L130.614 81.4365C130.201 79.3435 128.169 77.982 126.075 78.3965C123.982 78.8105 122.621 80.8425 123.035 82.9355L131.02 123.305C131.057 123.49 131.107 123.672 131.17 123.85C131.848 125.758 133.658 127.034 135.681 127.034H135.715C137.751 127.02 139.56 125.715 140.215 123.787C140.226 123.753 140.237 123.72 140.247 123.686L149.028 95.317L157.77 123.694C157.786 123.746 157.803 123.798 157.822 123.849C158.5 125.758 160.31 127.035 162.334 127.035H162.367C164.403 127.021 166.212 125.716 166.867 123.787C166.922 123.627 166.965 123.464 166.999 123.298L175.016 83.0155C175.432 80.9235 174.074 78.8895 171.981 78.473Z" fill="#E4F6FF"/>
</svg>
