<svg width="145" height="145" viewBox="0 0 145 145" fill="none" xmlns="http://www.w3.org/2000/svg">
<path d="M72.387 144.772C112.365 144.772 144.773 112.364 144.773 72.386C144.773 32.4083 112.365 0 72.387 0C32.4093 0 0.000976562 32.4083 0.000976562 72.386C0.000976562 112.364 32.4093 144.772 72.387 144.772Z" fill="#C0B3DB"/>
<mask id="mask0_13_225" style="mask-type:luminance" maskUnits="userSpaceOnUse" x="0" y="0" width="145" height="145">
<path d="M72.387 144.772C112.365 144.772 144.773 112.364 144.773 72.386C144.773 32.4083 112.365 0 72.387 0C32.4093 0 0.000976562 32.4083 0.000976562 72.386C0.000976562 112.364 32.4093 144.772 72.387 144.772Z" fill="white"/>
</mask>
<g mask="url(#mask0_13_225)">
<path d="M72.387 92.5489C88.7539 92.5489 102.022 79.1945 102.022 62.7209C102.022 46.2474 88.7539 32.8929 72.387 32.8929C56.02 32.8929 42.752 46.2474 42.752 62.7209C42.752 79.1945 56.02 92.5489 72.387 92.5489Z" fill="#EC9A1C"/>
<path d="M107.053 116.94C102.387 108.107 72.387 102.564 72.387 102.564C72.387 102.564 42.387 108.107 37.721 116.94C34.272 129.198 31.387 144.773 31.387 144.773H72.387H113.387C113.387 144.773 111.438 128.073 107.053 116.94Z" fill="#F1C9A5"/>
<path d="M72.387 102.564C72.387 102.564 102.387 108.107 107.053 116.94C111.439 128.073 113.387 144.773 113.387 144.773H72.387V102.564Z" fill="#E4B692"/>
<path d="M80.554 84.606H64.22V111.942H80.554V84.606Z" fill="#F1C9A5"/>
<path d="M80.554 84.606H72.387V111.942H80.554V84.606Z" fill="#E4B692"/>
<path opacity="0.1" d="M64.22 97.273C65.689 101.49 71.617 103.907 75.971 103.907C77.546 103.907 79.078 103.643 80.554 103.16V84.606H64.22V97.273Z" fill="#DDAC8C"/>
<path d="M93.387 67.357C93.387 50.283 83.985 40.574 72.387 40.574C60.789 40.574 51.387 50.283 51.387 67.357C51.387 84.431 60.789 98.274 72.387 98.274C83.984 98.274 93.387 84.432 93.387 67.357Z" fill="#F1C9A5"/>
<path d="M90.19 79.1949C86.383 78.7709 83.813 74.4119 84.458 69.4629C85.095 64.5099 88.7 60.8329 92.509 61.2539C96.314 61.6759 98.88 66.0329 98.238 70.9859C97.599 75.9389 93.997 79.6129 90.19 79.1949Z" fill="#E4B692"/>
<path d="M46.6849 70.9859C46.0419 66.0329 48.6089 61.6749 52.4119 61.2539C56.2219 60.8329 59.8279 64.5099 60.4669 69.4629C61.1089 74.4119 58.5369 78.7719 54.7329 79.1949C50.9249 79.6129 47.3229 75.9389 46.6849 70.9859Z" fill="#F1C9A5"/>
<path d="M93.387 67.357C93.387 50.283 83.985 40.574 72.387 40.574V98.274C83.984 98.274 93.387 84.432 93.387 67.357Z" fill="#E4B692"/>
<path d="M107.053 116.94C105.488 113.976 101.066 111.385 95.887 109.248C93.283 119.809 83.751 127.642 72.387 127.642C61.023 127.642 51.491 119.809 48.887 109.248C43.708 111.386 39.286 113.977 37.721 116.94C34.272 129.198 31.387 144.773 31.387 144.773H72.387H113.387C113.387 144.773 111.438 128.073 107.053 116.94Z" fill="#FC611F"/>
<path d="M72.387 37.698C72.387 37.698 43.725 39.864 49.053 64.62C49.053 64.62 76.101 59.65 80.355 49.24C84.609 59.65 95.721 64.62 95.721 64.62C101.049 39.864 72.387 37.698 72.387 37.698Z" fill="#EC9A1C"/>
<path d="M49.231 78.095C49.231 78.095 39.051 79.549 32.072 93.074C36.142 94.239 37.887 94.819 41.67 95.11C42.979 99.182 47.486 100.637 47.486 100.637C47.486 100.637 54.801 93.745 53.202 83.857" fill="#EC9A1C"/>
<path d="M95.5409 78.095C95.5409 78.095 105.721 79.549 112.7 93.074C108.63 94.239 106.885 94.819 103.102 95.11C101.792 99.182 97.2859 100.637 97.2859 100.637C97.2859 100.637 89.9709 93.745 91.5699 83.857" fill="#EC9A1C"/>
</g>
</svg>
