<svg width="145" height="145" viewBox="0 0 145 145" fill="none" xmlns="http://www.w3.org/2000/svg">
<path d="M72.387 144.772C112.365 144.772 144.773 112.364 144.773 72.386C144.773 32.4083 112.365 0 72.387 0C32.4093 0 0.000976562 32.4083 0.000976562 72.386C0.000976562 112.364 32.4093 144.772 72.387 144.772Z" fill="#EEA98B"/>
<mask id="mask0_13_223" style="mask-type:luminance" maskUnits="userSpaceOnUse" x="0" y="0" width="145" height="145">
<path d="M72.387 144.772C112.365 144.772 144.773 112.364 144.773 72.386C144.773 32.4083 112.365 0 72.387 0C32.4093 0 0.000976562 32.4083 0.000976562 72.386C0.000976562 112.364 32.4093 144.772 72.387 144.772Z" fill="white"/>
</mask>
<g mask="url(#mask0_13_223)">
<path d="M107.053 116.94C102.387 108.107 72.387 102.564 72.387 102.564C72.387 102.564 42.387 108.107 37.721 116.94C34.272 129.198 31.387 144.773 31.387 144.773H72.387H113.387C113.387 144.773 111.438 128.073 107.053 116.94Z" fill="#F1C9A5"/>
<path d="M72.387 102.564C72.387 102.564 102.387 108.107 107.053 116.94C111.439 128.073 113.387 144.773 113.387 144.773H72.387V102.564Z" fill="#E4B692"/>
<path d="M80.554 84.606H64.22V111.942H80.554V84.606Z" fill="#F1C9A5"/>
<path d="M80.554 84.606H72.387V111.942H80.554V84.606Z" fill="#E4B692"/>
<path opacity="0.1" d="M64.22 97.273C65.689 101.49 71.617 103.907 75.971 103.907C77.546 103.907 79.078 103.643 80.554 103.16V84.606H64.22V97.273Z" fill="#DDAC8C"/>
<path d="M93.387 67.357C93.387 50.283 83.985 40.574 72.387 40.574C60.789 40.574 51.387 50.283 51.387 67.357C51.387 90.323 60.789 98.274 72.387 98.274C83.984 98.274 93.387 89.366 93.387 67.357Z" fill="#F1C9A5"/>
<path d="M90.19 79.197C86.383 78.799 83.813 74.697 84.458 70.041C85.095 65.381 88.7 61.921 92.509 62.317C96.314 62.713 98.88 66.813 98.238 71.473C97.599 76.134 93.997 79.591 90.19 79.197Z" fill="#E4B692"/>
<path d="M46.6849 71.474C46.0419 66.814 48.6089 62.714 52.4119 62.318C56.2229 61.921 59.8279 65.381 60.4669 70.042C61.1089 74.698 58.5369 78.8 54.7329 79.198C50.9249 79.591 47.3229 76.134 46.6849 71.474Z" fill="#F1C9A5"/>
<path d="M93.387 67.357C93.387 50.283 83.985 40.574 72.387 40.574V98.274C83.984 98.274 93.387 89.366 93.387 67.357Z" fill="#E4B692"/>
<path d="M91.277 81.668C90.147 84.844 88.236 88.662 84.783 88.662C80.467 88.662 77.38 85.154 72.429 85.154C72.415 85.154 72.402 85.156 72.388 85.156C72.373 85.156 72.36 85.154 72.345 85.154C67.395 85.154 64.309 88.662 59.991 88.662C56.538 88.662 54.628 84.844 53.498 81.668L52.52 75.55V82.871C52.52 82.871 54.161 91.493 57.31 93.576C59.875 95.855 68.248 99.759 72.343 99.759C72.357 99.759 72.372 99.757 72.387 99.757C72.401 99.757 72.415 99.759 72.428 99.759H72.43C76.526 99.759 84.899 95.856 87.463 93.576C90.612 91.493 92.253 82.871 92.253 82.871V75.55L91.277 81.668Z" fill="#2E5870"/>
<path d="M107.053 116.94C104.327 111.782 92.9709 107.749 83.9879 105.284C83.6369 111.394 78.5859 116.244 72.3879 116.244C66.1899 116.244 61.1389 111.394 60.7869 105.284C51.8039 107.749 40.4469 111.782 37.7219 116.94C34.2729 129.198 31.3879 144.773 31.3879 144.773H72.3879H113.388C113.388 144.773 111.438 128.073 107.053 116.94Z" fill="#11B2BC"/>
<path d="M32.264 140.273C31.709 143.036 31.387 144.773 31.387 144.773H72.387H113.387C113.387 144.773 113.182 143.017 112.756 140.273H32.264Z" fill="#1695A6"/>
<path d="M33.1919 135.773H112C111.743 134.359 111.449 132.843 111.118 131.273H34.1699C33.8169 132.855 33.4899 134.367 33.1919 135.773Z" fill="#1695A6"/>
<path d="M35.2019 126.773H110.09C109.716 125.266 109.31 123.754 108.869 122.273H36.3019C35.9219 123.775 35.5539 125.284 35.2019 126.773Z" fill="#1695A6"/>
<path d="M72.387 116.244C69.408 116.244 66.7 115.116 64.646 113.273H41.236C39.636 114.419 38.406 115.644 37.721 116.94C37.644 117.215 37.567 117.495 37.49 117.773H107.371C107.267 117.493 107.161 117.213 107.054 116.94C106.369 115.644 105.139 114.419 103.539 113.273H80.129C78.073 115.116 75.366 116.244 72.387 116.244Z" fill="#1695A6"/>
<path d="M50.0659 108.773H61.5429C61.1229 107.678 60.8559 106.508 60.7859 105.284C57.3539 106.226 53.5769 107.398 50.0659 108.773Z" fill="#1695A6"/>
<path d="M83.23 108.773H94.708C91.196 107.398 87.42 106.225 83.987 105.284C83.917 106.509 83.65 107.679 83.23 108.773Z" fill="#1695A6"/>
<path d="M57.3699 106.269C58.5079 113.549 64.7879 119.125 72.3869 119.125C79.9859 119.125 86.2659 113.549 87.4039 106.269C86.2429 105.917 85.0969 105.589 83.9879 105.285C83.6369 111.395 78.5859 116.245 72.3879 116.245C66.1899 116.245 61.1389 111.395 60.7869 105.285C59.6769 105.589 58.5309 105.917 57.3699 106.269Z" fill="#1695A6"/>
<path d="M50.3289 65.554C50.3289 65.554 71.6749 61.503 82.8869 52.016C86.0489 59.204 87.9869 66.991 93.1609 66.991C95.7489 52.618 88.8489 40.328 75.3389 40.328C61.8269 40.327 50.6159 47.154 50.3289 65.554Z" fill="#2E5870"/>
</g>
</svg>
