<svg width="145" height="145" viewBox="0 0 145 145" fill="none" xmlns="http://www.w3.org/2000/svg">
<path d="M72.387 144.772C112.365 144.772 144.773 112.364 144.773 72.386C144.773 32.4083 112.365 0 72.387 0C32.4093 0 0.000976562 32.4083 0.000976562 72.386C0.000976562 112.364 32.4093 144.772 72.387 144.772Z" fill="#A6DAE8"/>
<mask id="mask0_13_230" style="mask-type:luminance" maskUnits="userSpaceOnUse" x="0" y="0" width="145" height="145">
<path d="M72.387 144.772C112.365 144.772 144.773 112.364 144.773 72.386C144.773 32.4083 112.365 0 72.387 0C32.4093 0 0.000976562 32.4083 0.000976562 72.386C0.000976562 112.364 32.4093 144.772 72.387 144.772Z" fill="white"/>
</mask>
<g mask="url(#mask0_13_230)">
<path d="M72.3869 92.5489C87.9713 92.5489 100.605 79.1945 100.605 62.7209C100.605 46.2474 87.9713 32.8929 72.3869 32.8929C56.8026 32.8929 44.1689 46.2474 44.1689 62.7209C44.1689 79.1945 56.8026 92.5489 72.3869 92.5489Z" fill="#10303F"/>
<path d="M107.053 116.94C102.387 108.107 72.387 102.564 72.387 102.564C72.387 102.564 42.387 108.107 37.721 116.94C34.272 129.198 31.387 144.773 31.387 144.773H72.387H113.387C113.387 144.773 111.438 128.073 107.053 116.94Z" fill="#F1C9A5"/>
<path d="M72.387 102.564C72.387 102.564 102.387 108.107 107.053 116.94C111.439 128.073 113.387 144.773 113.387 144.773H72.387V102.564Z" fill="#E4B692"/>
<path d="M80.554 84.6069H64.22V111.943H80.554V84.6069Z" fill="#F1C9A5"/>
<path d="M80.554 84.6069H72.387V111.943H80.554V84.6069Z" fill="#E4B692"/>
<path opacity="0.1" d="M64.22 97.273C65.689 101.49 71.617 103.907 75.971 103.907C77.546 103.907 79.078 103.643 80.554 103.16V84.606H64.22V97.273Z" fill="#DDAC8C"/>
<path d="M93.387 67.357C93.387 50.283 83.985 40.574 72.387 40.574C60.789 40.574 51.387 50.283 51.387 67.357C51.387 84.431 60.789 98.274 72.387 98.274C83.984 98.274 93.387 84.432 93.387 67.357Z" fill="#F1C9A5"/>
<path d="M90.94 79.1949C87.133 78.7709 84.563 74.4119 85.208 69.4629C85.845 64.5099 89.45 60.8329 93.259 61.2539C97.064 61.6759 99.63 66.0329 98.988 70.9859C98.349 75.9389 94.747 79.6129 90.94 79.1949Z" fill="#E4B692"/>
<path d="M45.6849 70.9859C45.0419 66.0329 47.6089 61.6759 51.4119 61.2539C55.2229 60.8329 58.8279 64.5099 59.4669 69.4629C60.1089 74.4119 57.5369 78.7719 53.7329 79.1949C49.9249 79.6129 46.3229 75.9389 45.6849 70.9859Z" fill="#F1C9A5"/>
<path d="M93.387 67.357C93.387 50.283 83.985 40.574 72.387 40.574V98.274C83.984 98.274 93.387 84.432 93.387 67.357Z" fill="#E4B692"/>
<path d="M107.053 116.94C105.488 113.976 101.066 111.385 95.887 109.248C93.283 119.809 83.751 127.642 72.387 127.642C61.023 127.642 51.491 119.809 48.887 109.248C43.708 111.386 39.286 113.977 37.721 116.94C34.272 129.198 31.387 144.773 31.387 144.773H72.387H113.387C113.387 144.773 111.438 128.073 107.053 116.94Z" fill="#BF0020"/>
<path d="M72.387 37.698C72.387 37.698 43.725 39.864 49.053 64.62C49.053 64.62 68.133 61.569 72.387 51.159C76.641 61.569 95.721 64.62 95.721 64.62C101.049 39.864 72.387 37.698 72.387 37.698Z" fill="#10303F"/>
<path d="M72.3871 49.4289C80.2312 49.4289 86.5901 43.0701 86.5901 35.226C86.5901 27.3818 80.2312 21.0229 72.3871 21.0229C64.543 21.0229 58.1841 27.3818 58.1841 35.226C58.1841 43.0701 64.543 49.4289 72.3871 49.4289Z" fill="#10303F"/>
<path d="M59.9089 105.376C59.9089 105.387 59.9089 105.397 59.9089 105.408" stroke="white" stroke-width="1.8263" stroke-linecap="round" stroke-linejoin="round"/>
<path d="M60.147 107.843C61.296 113.721 66.476 118.156 72.692 118.156C79.327 118.156 84.782 113.1 85.413 106.63" stroke="white" stroke-width="1.8263" stroke-linecap="round" stroke-linejoin="round" stroke-dasharray="0.06 2.45"/>
<path d="M85.4729 105.408C85.4729 105.397 85.4729 105.387 85.4729 105.376" stroke="white" stroke-width="1.8263" stroke-linecap="round" stroke-linejoin="round"/>
</g>
</svg>
