<svg width="145" height="145" viewBox="0 0 145 145" fill="none" xmlns="http://www.w3.org/2000/svg">
<g clip-path="url(#clip0_13_226)">
<path d="M72.387 144.772C112.365 144.772 144.773 112.364 144.773 72.386C144.773 32.4083 112.365 0 72.387 0C32.4093 0 0.000976562 32.4083 0.000976562 72.386C0.000976562 112.364 32.4093 144.772 72.387 144.772Z" fill="#94D0C1"/>
<mask id="mask0_13_226" style="mask-type:luminance" maskUnits="userSpaceOnUse" x="0" y="0" width="145" height="145">
<path d="M72.387 144.772C112.365 144.772 144.773 112.364 144.773 72.386C144.773 32.4083 112.365 0 72.387 0C32.4093 0 0.000976562 32.4083 0.000976562 72.386C0.000976562 112.364 32.4093 144.772 72.387 144.772Z" fill="white"/>
</mask>
<g mask="url(#mask0_13_226)">
<path d="M107.053 116.94C102.387 108.107 72.387 102.564 72.387 102.564C72.387 102.564 42.387 108.107 37.721 116.94C34.272 129.198 31.387 144.773 31.387 144.773H72.387H113.387C113.387 144.773 111.438 128.073 107.053 116.94Z" fill="#F1C9A5"/>
<path d="M72.387 102.564C72.387 102.564 102.387 108.107 107.053 116.94C111.439 128.073 113.387 144.773 113.387 144.773H72.387V102.564Z" fill="#E4B692"/>
<path d="M80.554 84.606H64.22V111.942H80.554V84.606Z" fill="#F1C9A5"/>
<path d="M80.554 84.606H72.387V111.942H80.554V84.606Z" fill="#E4B692"/>
<path opacity="0.1" d="M64.22 97.273C65.689 101.49 71.617 103.907 75.971 103.907C77.546 103.907 79.078 103.643 80.554 103.16V84.606H64.22V97.273Z" fill="#DDAC8C"/>
<path d="M107.053 116.94C104.327 111.782 92.971 107.749 83.988 105.284C83.637 111.394 78.586 116.244 72.387 116.244C66.189 116.244 61.138 111.394 60.786 105.284C51.803 107.749 40.446 111.782 37.72 116.94C34.271 129.198 31.386 144.773 31.386 144.773H72.386H113.386C113.386 144.773 111.438 128.073 107.053 116.94Z" fill="white"/>
<path d="M93.387 67.357C93.387 50.283 83.985 40.574 72.387 40.574C60.789 40.574 51.387 50.283 51.387 67.357C51.387 74.51 53.575 90.348 57.311 93.576C59.876 95.855 68.249 99.759 72.344 99.759C72.358 99.759 72.373 99.757 72.388 99.757C72.402 99.757 72.416 99.759 72.429 99.759H72.431C76.527 99.759 84.9 95.856 87.464 93.576C91.348 89.474 93.387 73.923 93.387 67.357Z" fill="#F1C9A5"/>
<path d="M72.388 99.757C72.402 99.757 72.416 99.759 72.429 99.759H72.431C76.527 99.759 84.9 95.856 87.464 93.576C91.348 89.473 93.387 73.923 93.387 67.357C93.387 50.283 83.985 40.574 72.387 40.574L72.388 99.757Z" fill="#E4B692"/>
<path d="M90.19 79.197C86.383 78.799 83.813 74.697 84.458 70.041C85.095 65.381 88.7 61.921 92.509 62.317C96.314 62.713 98.88 66.813 98.238 71.473C97.599 76.134 93.997 79.591 90.19 79.197Z" fill="#E4B692"/>
<path d="M46.6851 71.474C46.0421 66.814 48.6091 62.714 52.4121 62.318C56.2221 61.921 59.8281 65.381 60.4671 70.042C61.1101 74.698 58.5371 78.8 54.7331 79.198C50.9251 79.591 47.3231 76.134 46.6851 71.474Z" fill="#F1C9A5"/>
<path d="M37.721 116.94C34.272 129.198 31.387 144.773 31.387 144.773H61.164C56.11 122.468 55.915 106.75 55.915 106.72C48.095 109.196 39.97 112.684 37.721 116.94Z" fill="#FB6020"/>
<path d="M107.053 116.94C111.723 128.473 113.387 144.773 113.387 144.773H83.6089C88.6629 122.468 88.8579 106.75 88.8579 106.72C96.6789 109.196 104.804 112.684 107.053 116.94Z" fill="#FB6020"/>
<path d="M52.6719 78.725C52.6719 78.725 55.7389 89.056 59.0599 90.81C60.5929 90.81 61.7429 90.81 61.7429 90.81L65.0629 86.105L72.3439 84.076V99.76H62.8909L53.4389 91.272L52.6719 78.725Z" fill="#915F2C"/>
<path d="M92.059 78.725C92.059 78.725 88.992 89.056 85.671 90.81C84.138 90.81 82.988 90.81 82.988 90.81L79.668 86.105L72.387 84.076V99.76H81.84L91.292 91.272L92.059 78.725Z" fill="#915F2C"/>
<path d="M75.7549 89.241C75.7549 89.241 75.2549 87.015 72.3379 87.015C69.6709 87.015 68.9209 89.241 68.9209 89.241H75.7549Z" fill="white"/>
<path d="M51.4199 62.366C51.4199 62.366 54.2029 62.945 56.0009 65.035C55.6839 61.378 54.9809 49.23 59.4209 46.182C63.8609 43.135 65.9379 46.313 72.3869 46.313C72.3869 41.524 72.3869 37.431 72.3869 37.431C72.3869 37.431 64.6359 37.431 61.9049 37.431C59.1729 37.431 50.5039 38.737 50.5039 46.922C50.5029 55.108 51.4199 62.366 51.4199 62.366Z" fill="#915F2C"/>
<path d="M93.353 62.366C93.353 62.366 90.57 62.945 88.772 65.035C89.089 61.378 89.792 49.23 85.352 46.182C80.913 43.135 78.835 46.313 72.386 46.313C72.386 41.524 72.386 37.431 72.386 37.431C72.386 37.431 80.137 37.431 82.868 37.431C85.6 37.431 94.269 38.737 94.269 46.922C94.27 55.108 93.353 62.366 93.353 62.366Z" fill="#915F2C"/>
</g>
</g>
<defs>
<clipPath id="clip0_13_226">
<rect width="144.773" height="144.773" fill="white"/>
</clipPath>
</defs>
</svg>
