<svg width="311" height="275" viewBox="0 0 311 275" fill="none" xmlns="http://www.w3.org/2000/svg">
<path d="M88.2188 129.307L121.024 115.106C132.65 110.073 146.172 112.652 155.131 121.61L163.213 129.693L88.2188 129.307Z" fill="url(#paint0_linear_573_107)"/>
<path d="M286.166 227.29L309.853 250.977C311.383 252.507 311.383 254.988 309.853 256.518C308.322 258.048 305.842 258.048 304.312 256.518L280.625 232.831C279.095 231.3 279.095 228.82 280.625 227.29C282.155 225.76 284.635 225.76 286.166 227.29Z" fill="url(#paint1_linear_573_107)"/>
<path d="M254.609 229.247L83.5234 58.1609L111.496 30.1885L258.118 176.812L283.046 201.74C285.224 203.918 286.981 206.467 288.197 209.213L303.152 242.99C305.277 247.788 301.123 251.942 296.325 249.818L262.548 234.862C259.802 233.646 257.252 231.89 255.074 229.711L254.609 229.247Z" fill="url(#paint2_linear_573_107)"/>
<path d="M83.5234 58.161L111.495 30.1892L167.511 86.2044L139.539 114.176L83.5234 58.161Z" fill="url(#paint3_linear_573_107)"/>
<path d="M285.028 203.979C286.304 205.599 287.376 207.359 288.197 209.213L303.152 242.99C305.277 247.788 301.123 251.942 296.325 249.817L262.548 234.862C260.694 234.041 258.935 232.969 257.314 231.692L285.028 203.979Z" fill="url(#paint4_linear_573_107)"/>
<path d="M87.0661 52.7743L106.109 33.7317C108.088 31.7521 108.088 28.5418 106.109 26.5623L84.2155 4.66895C78.5404 -1.00619 69.3385 -1.00619 63.6634 4.66895L58.0034 10.3289C52.3283 16.0041 52.3283 25.2059 58.0034 30.881L79.8967 52.7743C81.8769 54.7545 85.0866 54.7545 87.0661 52.7743Z" fill="url(#paint5_linear_573_107)"/>
<path d="M60.5679 33.4449L79.8973 52.7742C81.8762 54.7532 85.0871 54.7569 87.0697 52.7742L106.109 33.7352C108.092 31.7526 108.088 28.5418 106.109 26.5628L86.7799 7.2334L60.5679 33.4449Z" fill="url(#paint6_linear_573_107)"/>
<path d="M58.0034 10.3288L60.0419 8.29028L95.796 44.0443L87.0661 52.7742C85.0866 54.7538 81.8763 54.7538 79.8967 52.7742L58.0034 30.8809C52.3283 25.2058 52.3283 16.0039 58.0034 10.3288Z" fill="url(#paint7_linear_573_107)"/>
<path d="M195.999 100.689C195.223 102.531 193.101 103.395 191.259 102.62L189.164 101.738C179.976 97.8688 172.161 91.4636 166.564 83.2142L140.394 44.6417C136.373 38.7139 131.765 33.1408 126.701 28.0755C124.929 26.3036 122.054 26.3036 120.283 28.0755L108.862 39.4962L103.744 34.3781L115.164 22.9573C119.77 18.3519 127.262 18.3956 131.865 23.0041C137.234 28.3792 142.119 34.2918 146.384 40.578L172.554 79.1505C177.363 86.2385 184.078 91.7424 191.973 95.0668L194.068 95.9488C195.91 96.7245 196.775 98.8468 195.999 100.689Z" fill="url(#paint8_linear_573_107)"/>
<path d="M115.164 22.9578L103.744 34.3786L108.862 39.4967L120.283 28.076C122.054 26.3041 124.929 26.3041 126.701 28.076C131.765 33.1406 136.373 38.7143 140.394 44.6422L145.513 52.187L150.724 46.9759L146.383 40.5785C142.118 34.2923 137.233 28.3797 131.864 23.0046C127.262 18.3961 119.77 18.3523 115.164 22.9578Z" fill="url(#paint9_linear_573_107)"/>
<path d="M93.8916 66.2153L119.55 40.5566C121.352 38.755 121.352 35.8333 119.55 34.0317L109.208 23.6891C107.406 21.8875 104.484 21.8875 102.683 23.6891L77.0241 49.3478C75.2224 51.1494 75.2224 54.0711 77.0241 55.8727L87.3666 66.2153C89.1682 68.0175 92.0893 68.0175 93.8916 66.2153Z" fill="url(#paint10_linear_573_107)"/>
<path d="M77.024 49.3478L93.2969 33.075L110.164 49.9424L93.8915 66.2153C92.0899 68.0175 89.1682 68.0175 87.3666 66.2153L77.024 55.8727C75.2218 54.0711 75.2218 51.15 77.024 49.3478Z" fill="url(#paint11_linear_573_107)"/>
<path d="M93.8916 66.2153L119.55 40.5566C121.352 38.755 121.352 35.8333 119.55 34.0317L109.208 23.6891C107.406 21.8875 104.484 21.8875 102.683 23.6891L77.0241 49.3478C75.2224 51.1494 75.2224 54.0711 77.0241 55.8727L87.3666 66.2153C89.1682 68.0175 92.0893 68.0175 93.8916 66.2153Z" fill="url(#paint12_linear_573_107)"/>
<path d="M261.968 234.292L287.627 208.633C289.429 206.832 289.429 203.91 287.627 202.108L233.101 147.583C231.3 145.781 228.378 145.781 226.576 147.583L200.918 173.242C199.116 175.043 199.116 177.965 200.918 179.767L255.443 234.292C257.245 236.094 260.167 236.094 261.968 234.292Z" fill="url(#paint13_linear_573_107)"/>
<path d="M200.918 173.242L217.191 156.969L278.241 218.02L261.968 234.293C260.167 236.094 257.245 236.094 255.443 234.293L200.918 179.767C199.116 177.965 199.116 175.043 200.918 173.242Z" fill="url(#paint14_linear_573_107)"/>
<path d="M233.026 211.876L255.444 234.293C257.245 236.095 260.166 236.095 261.968 234.293L287.626 208.635C289.428 206.833 289.428 203.912 287.626 202.111L265.209 179.693L233.026 211.876Z" fill="url(#paint15_linear_573_107)"/>
<path d="M163.059 104.184L186.746 127.871C188.277 129.401 188.277 131.882 186.746 133.411C185.216 134.941 182.736 134.941 181.206 133.411L157.519 109.724C155.989 108.194 155.989 105.713 157.519 104.183C159.049 102.653 161.529 102.654 163.059 104.184Z" fill="white"/>
<path d="M186.341 160.979H242.285L162.034 80.7278H106.09L186.341 160.979Z" fill="url(#paint16_linear_573_107)"/>
<path d="M137.851 78.9755L152.119 93.2438C153.649 94.7739 153.649 97.2546 152.119 98.7847C150.589 100.315 148.108 100.315 146.578 98.7847L132.31 84.5164C130.78 82.9863 130.78 80.5055 132.31 78.9755C133.84 77.4454 136.32 77.4454 137.851 78.9755Z" fill="white"/>
<path d="M266.29 142.613C266.06 132.976 258.163 124.273 248.471 124.273H114.259C105.183 124.273 96.235 126.142 87.7936 129.476C79.1482 132.89 69.8637 134.675 60.4311 134.675H50.8223V262.161H70.6795C77.0319 262.161 83.2799 263.768 88.8463 266.844C93.4524 269.383 98.3366 271.317 103.395 272.618C108.446 273.913 113.657 274.588 118.917 274.588H194.019C205.715 274.588 215.671 263.205 217.453 247.78C217.766 245.057 217.599 242.405 217.048 239.956C220.193 238.668 223.076 236.537 225.523 233.735C229.701 228.964 232.632 222.258 233.523 214.546C233.84 211.801 233.667 209.126 233.104 206.66C241.534 203.132 248.032 193.481 249.436 181.308C250.565 171.528 245.534 162.617 238.49 161.016L238.318 160.982H248.332C258.198 160.787 266.526 152.486 266.29 142.613Z" fill="url(#paint17_linear_573_107)"/>
<path d="M248.334 160.982H172.473V124.27H248.468C258.163 124.27 266.057 132.978 266.287 142.616C266.526 152.484 258.202 160.79 248.334 160.982Z" fill="url(#paint18_linear_573_107)"/>
<path d="M50.8223 134.063V262.161H70.6795C77.0319 262.161 83.2799 263.768 88.8463 266.844C93.4524 269.383 98.3366 271.317 103.395 272.618C108.446 273.913 113.657 274.588 118.917 274.588H122.535V124.273H114.257C105.336 124.273 96.4961 125.979 88.2188 129.307C76.5387 134.003 63.6735 135.713 50.8296 134.055C50.8265 134.058 50.8253 134.059 50.8223 134.063Z" fill="url(#paint19_linear_573_107)"/>
<path d="M51.004 272.357H11.1474C4.99058 272.357 0 267.367 0 261.21V135.987C0 129.831 4.99058 124.84 11.1474 124.84H51.0046C57.1608 124.84 62.152 129.83 62.152 135.987V261.21C62.1514 267.367 57.1608 272.357 51.004 272.357Z" fill="url(#paint20_linear_573_107)"/>
<path d="M51.004 272.357H11.1474C4.99058 272.357 0 267.367 0 261.21V135.987C0 129.831 4.99058 124.84 11.1474 124.84H51.0046C57.1608 124.84 62.152 129.83 62.152 135.987V261.21C62.1514 267.367 57.1608 272.357 51.004 272.357Z" fill="url(#paint21_linear_573_107)"/>
<path d="M62.1514 261.21V176.35H0V261.21C0 267.366 4.99058 272.357 11.1474 272.357H51.0046C57.1608 272.357 62.1514 267.367 62.1514 261.21Z" fill="url(#paint22_linear_573_107)"/>
<path d="M210.09 241.351H197.661H184.903H149.463V274.585H194.02C205.718 274.585 215.672 263.204 217.453 247.779C217.767 245.058 217.597 242.405 217.045 239.956C214.837 240.86 212.5 241.351 210.09 241.351Z" fill="url(#paint23_linear_573_107)"/>
<path d="M249.436 181.308C250.565 171.528 245.534 162.617 238.489 161.016L238.313 160.981C238.309 160.981 238.305 160.98 238.301 160.979H149.464V208.111H226.005C237.706 208.111 247.657 196.729 249.436 181.308Z" fill="url(#paint24_linear_573_107)"/>
<path d="M226.005 208.111H197.176V208.108H149.463V241.351H210.09C215.934 241.351 221.356 238.506 225.524 233.735C229.701 228.964 232.632 222.257 233.523 214.546C233.84 211.801 233.667 209.126 233.104 206.659C230.855 207.6 228.47 208.111 226.005 208.111Z" fill="url(#paint25_linear_573_107)"/>
<defs>
<linearGradient id="paint0_linear_573_107" x1="115.708" y1="119.218" x2="133.812" y2="137.818" gradientUnits="userSpaceOnUse">
<stop stop-color="#FFDFCF"/>
<stop offset="1" stop-color="#FFA78F"/>
</linearGradient>
<linearGradient id="paint1_linear_573_107" x1="298.063" y1="239.061" x2="292.523" y2="244.601" gradientUnits="userSpaceOnUse">
<stop stop-color="#5A5A5A"/>
<stop offset="1" stop-color="#444444"/>
</linearGradient>
<linearGradient id="paint2_linear_573_107" x1="212.768" y1="133.748" x2="188.774" y2="157.743" gradientUnits="userSpaceOnUse">
<stop stop-color="#C8EFFE"/>
<stop offset="0.1044" stop-color="#BFECFD"/>
<stop offset="0.2723" stop-color="#A8E4FB"/>
<stop offset="0.4825" stop-color="#81D5F9"/>
<stop offset="0.727" stop-color="#4CC2F5"/>
<stop offset="0.9974" stop-color="#08A9F1"/>
<stop offset="1" stop-color="#08A9F1"/>
</linearGradient>
<linearGradient id="paint3_linear_573_107" x1="118.699" y1="65.2376" x2="106.529" y2="53.0675" gradientUnits="userSpaceOnUse">
<stop stop-color="#0290CF" stop-opacity="0"/>
<stop offset="0.9853" stop-color="#0290CF" stop-opacity="0.985"/>
<stop offset="1" stop-color="#0290CF"/>
</linearGradient>
<linearGradient id="paint4_linear_573_107" x1="284.635" y1="227.607" x2="275.515" y2="220.92" gradientUnits="userSpaceOnUse">
<stop stop-color="#0290CF" stop-opacity="0"/>
<stop offset="0.9853" stop-color="#0290CF" stop-opacity="0.985"/>
<stop offset="1" stop-color="#0290CF"/>
</linearGradient>
<linearGradient id="paint5_linear_573_107" x1="81.4538" y1="22.6746" x2="74.5852" y2="29.5432" gradientUnits="userSpaceOnUse">
<stop stop-color="#5A5A5A"/>
<stop offset="1" stop-color="#444444"/>
</linearGradient>
<linearGradient id="paint6_linear_573_107" x1="83.0701" y1="29.6084" x2="90.2058" y2="36.7441" gradientUnits="userSpaceOnUse">
<stop stop-color="#433F43" stop-opacity="0"/>
<stop offset="1" stop-color="#1A1A1A"/>
</linearGradient>
<linearGradient id="paint7_linear_573_107" x1="74.8871" y1="29.2412" x2="67.1398" y2="36.9884" gradientUnits="userSpaceOnUse">
<stop stop-color="#433F43" stop-opacity="0"/>
<stop offset="1" stop-color="#1A1A1A"/>
</linearGradient>
<linearGradient id="paint8_linear_573_107" x1="151.358" y1="65.1102" x2="159.302" y2="59.4355" gradientUnits="userSpaceOnUse">
<stop stop-color="#FFFBF5"/>
<stop offset="0.4893" stop-color="#FFF8EC"/>
<stop offset="1" stop-color="#FFF2DE"/>
</linearGradient>
<linearGradient id="paint9_linear_573_107" x1="126.86" y1="37.7349" x2="115.834" y2="40.6535" gradientUnits="userSpaceOnUse">
<stop stop-color="#FFF2DE" stop-opacity="0"/>
<stop offset="0.2223" stop-color="#FFEDD7" stop-opacity="0.222"/>
<stop offset="0.5516" stop-color="#FFDFC3" stop-opacity="0.552"/>
<stop offset="0.9456" stop-color="#FFC8A2" stop-opacity="0.946"/>
<stop offset="1" stop-color="#FFC49D"/>
</linearGradient>
<linearGradient id="paint10_linear_573_107" x1="109.904" y1="33.3908" x2="93.2694" y2="50.0255" gradientUnits="userSpaceOnUse">
<stop stop-color="#FFFBF5"/>
<stop offset="0.4893" stop-color="#FFF8EC"/>
<stop offset="1" stop-color="#FFF2DE"/>
</linearGradient>
<linearGradient id="paint11_linear_573_107" x1="90.8271" y1="52.4677" x2="82.6908" y2="60.604" gradientUnits="userSpaceOnUse">
<stop stop-color="#FFF2DE" stop-opacity="0"/>
<stop offset="0.2223" stop-color="#FFEDD7" stop-opacity="0.222"/>
<stop offset="0.5516" stop-color="#FFDFC3" stop-opacity="0.552"/>
<stop offset="0.9456" stop-color="#FFC8A2" stop-opacity="0.946"/>
<stop offset="1" stop-color="#FFC49D"/>
</linearGradient>
<linearGradient id="paint12_linear_573_107" x1="99.0949" y1="45.5828" x2="107.155" y2="53.6431" gradientUnits="userSpaceOnUse">
<stop stop-color="#FFF2DE" stop-opacity="0"/>
<stop offset="0.2223" stop-color="#FFEDD7" stop-opacity="0.222"/>
<stop offset="0.5516" stop-color="#FFDFC3" stop-opacity="0.552"/>
<stop offset="0.9456" stop-color="#FFC8A2" stop-opacity="0.946"/>
<stop offset="1" stop-color="#FFC49D"/>
</linearGradient>
<linearGradient id="paint13_linear_573_107" x1="248.552" y1="186.654" x2="237.647" y2="197.559" gradientUnits="userSpaceOnUse">
<stop stop-color="#5A5A5A"/>
<stop offset="1" stop-color="#444444"/>
</linearGradient>
<linearGradient id="paint14_linear_573_107" x1="241.377" y1="193.828" x2="229.216" y2="205.989" gradientUnits="userSpaceOnUse">
<stop stop-color="#433F43" stop-opacity="0"/>
<stop offset="1" stop-color="#1A1A1A"/>
</linearGradient>
<linearGradient id="paint15_linear_573_107" x1="267.539" y1="214.078" x2="273.798" y2="220.338" gradientUnits="userSpaceOnUse">
<stop stop-color="#433F43" stop-opacity="0"/>
<stop offset="1" stop-color="#1A1A1A"/>
</linearGradient>
<linearGradient id="paint16_linear_573_107" x1="174.187" y1="100.567" x2="174.187" y2="127.516" gradientUnits="userSpaceOnUse">
<stop stop-color="#0290CF" stop-opacity="0"/>
<stop offset="0.9853" stop-color="#0290CF" stop-opacity="0.985"/>
<stop offset="1" stop-color="#0290CF"/>
</linearGradient>
<linearGradient id="paint17_linear_573_107" x1="131.591" y1="145.073" x2="205.494" y2="296.848" gradientUnits="userSpaceOnUse">
<stop stop-color="#FFDFCF"/>
<stop offset="1" stop-color="#FFA78F"/>
</linearGradient>
<linearGradient id="paint18_linear_573_107" x1="218.85" y1="148.636" x2="225.341" y2="177.384" gradientUnits="userSpaceOnUse">
<stop stop-color="#F89580" stop-opacity="0"/>
<stop offset="0.2699" stop-color="#F08F7A" stop-opacity="0.271"/>
<stop offset="0.6945" stop-color="#D97F69" stop-opacity="0.696"/>
<stop offset="0.9972" stop-color="#C5715A"/>
</linearGradient>
<linearGradient id="paint19_linear_573_107" x1="85.8073" y1="199.43" x2="60.2409" y2="199.43" gradientUnits="userSpaceOnUse">
<stop stop-color="#F89580" stop-opacity="0"/>
<stop offset="0.2699" stop-color="#F08F7A" stop-opacity="0.271"/>
<stop offset="0.6945" stop-color="#D97F69" stop-opacity="0.696"/>
<stop offset="0.9972" stop-color="#C5715A"/>
</linearGradient>
<linearGradient id="paint20_linear_573_107" x1="17.0327" y1="198.599" x2="47.354" y2="198.599" gradientUnits="userSpaceOnUse">
<stop stop-color="#FFFBF5"/>
<stop offset="0.4893" stop-color="#FFF8EC"/>
<stop offset="1" stop-color="#FFF2DE"/>
</linearGradient>
<linearGradient id="paint21_linear_573_107" x1="41.8325" y1="198.599" x2="58.5646" y2="198.599" gradientUnits="userSpaceOnUse">
<stop stop-color="#FFF2DE" stop-opacity="0"/>
<stop offset="0.2223" stop-color="#FFEDD7" stop-opacity="0.222"/>
<stop offset="0.5516" stop-color="#FFDFC3" stop-opacity="0.552"/>
<stop offset="0.9456" stop-color="#FFC8A2" stop-opacity="0.946"/>
<stop offset="1" stop-color="#FFC49D"/>
</linearGradient>
<linearGradient id="paint22_linear_573_107" x1="31.0757" y1="247.494" x2="31.0757" y2="276.416" gradientUnits="userSpaceOnUse">
<stop stop-color="#FFF2DE" stop-opacity="0"/>
<stop offset="0.2223" stop-color="#FFEDD7" stop-opacity="0.222"/>
<stop offset="0.5516" stop-color="#FFDFC3" stop-opacity="0.552"/>
<stop offset="0.9456" stop-color="#FFC8A2" stop-opacity="0.946"/>
<stop offset="1" stop-color="#FFC49D"/>
</linearGradient>
<linearGradient id="paint23_linear_573_107" x1="183.447" y1="257.677" x2="192.706" y2="277.186" gradientUnits="userSpaceOnUse">
<stop stop-color="#F89580" stop-opacity="0"/>
<stop offset="0.2699" stop-color="#F08F7A" stop-opacity="0.271"/>
<stop offset="0.6945" stop-color="#D97F69" stop-opacity="0.696"/>
<stop offset="0.9972" stop-color="#C5715A"/>
</linearGradient>
<linearGradient id="paint24_linear_573_107" x1="200.33" y1="194.362" x2="207.274" y2="217.84" gradientUnits="userSpaceOnUse">
<stop stop-color="#F89580" stop-opacity="0"/>
<stop offset="0.2699" stop-color="#F08F7A" stop-opacity="0.271"/>
<stop offset="0.6945" stop-color="#D97F69" stop-opacity="0.696"/>
<stop offset="0.9972" stop-color="#C5715A"/>
</linearGradient>
<linearGradient id="paint25_linear_573_107" x1="193.622" y1="231.994" x2="197.59" y2="245.551" gradientUnits="userSpaceOnUse">
<stop stop-color="#F89580" stop-opacity="0"/>
<stop offset="0.2699" stop-color="#F08F7A" stop-opacity="0.271"/>
<stop offset="0.6945" stop-color="#D97F69" stop-opacity="0.696"/>
<stop offset="0.9972" stop-color="#C5715A"/>
</linearGradient>
</defs>
</svg>
