<svg height="512" viewBox="0 0 64 64" width="512" xmlns="http://www.w3.org/2000/svg"><g id="_02-Shopping" data-name="02-Shopping"><path d="m31 10 3-1-2 3v.3a13.687 13.687 0 0 0 -3-.3 13.687 13.687 0 0 0 -3 .3v-.3l-2-3 2.95 1 2.05-2z" fill="#628c1b"/><path d="m29 12a13.687 13.687 0 0 1 3 .3c2.93.62 5 2.34 5 5.7a8 8 0 0 1 -16 0c0-3.36 2.07-5.08 5-5.7a13.687 13.687 0 0 1 3-.3z" fill="#99343b"/><path d="m31.5 23h-1a5.5 5.5 0 0 1 -.637-10.96c-.287-.015-.563-.04-.863-.04a13.687 13.687 0 0 0 -3 .3c-2.93.62-5 2.34-5 5.7a8 8 0 0 0 16 0c0-.069-.014-.126-.015-.193a5.5 5.5 0 0 1 -5.485 5.193z" fill="#7d2a30"/><path d="m16.98 53.7a2.015 2.015 0 0 1 -3.99.57l-1.97-13.97c-.01-.1-.02-.2-.02-.29a2.015 2.015 0 0 1 4.01-.28z" fill="#8ea241"/><path d="m28 40v14a2 2 0 0 1 -4 0v-14a2.006 2.006 0 0 1 2-2 2.015 2.015 0 0 1 2 2z" fill="#8ea241"/><path d="m53 40.01c0 .09-.01.19-.02.29l-1.97 13.97a2.015 2.015 0 0 1 -3.99-.57l1.97-13.97a2.015 2.015 0 0 1 4.01.28z" fill="#8ea241"/><path d="m40 40v14a2 2 0 0 1 -4 0v-14a2.006 2.006 0 0 1 2-2 2.015 2.015 0 0 1 2 2z" fill="#8ea241"/><g fill="#628c1b"><path d="m12 42.01a2.012 2.012 0 0 1 1.74-1.99 1.981 1.981 0 0 1 1.353.3l-.083-.588a2.015 2.015 0 0 0 -4.01.28c0 .09.01.19.02.29l1.97 13.97a1.987 1.987 0 0 0 .917 1.412l-1.887-13.384c-.01-.1-.02-.2-.02-.29z"/><path d="m27 40a1.959 1.959 0 0 1 1 .279v-.279a2.015 2.015 0 0 0 -2-2 2.006 2.006 0 0 0 -2 2v14a2 2 0 0 0 1 1.721v-13.721a2.006 2.006 0 0 1 2-2z"/><path d="m49.99 41.73a2.012 2.012 0 0 1 2.992-1.463c.009-.088.018-.177.018-.257a2.015 2.015 0 0 0 -4.01-.28l-1.97 13.97a2 2 0 0 0 1 2.034c0-.011 0-.022 0-.034z"/><path d="m39 40a1.959 1.959 0 0 1 1 .279v-.279a2.015 2.015 0 0 0 -2-2 2.006 2.006 0 0 0 -2 2v14a2 2 0 0 0 1 1.721v-13.721a2.006 2.006 0 0 1 2-2z"/></g><path d="m44 7h-24v-3-3h24v3z" fill="#88ab00"/><path d="m60 33-3.54 26.53a3.991 3.991 0 0 1 -3.96 3.47h-41a3.991 3.991 0 0 1 -3.96-3.47l-3.54-26.53zm-7.02 7.3c.01-.1.02-.2.02-.29a2.015 2.015 0 0 0 -4.01-.28l-1.97 13.97a2.015 2.015 0 0 0 3.99.57zm-12.98 13.7v-14a2.015 2.015 0 0 0 -2-2 2.006 2.006 0 0 0 -2 2v14a2 2 0 0 0 4 0zm-12 0v-14a2.015 2.015 0 0 0 -2-2 2.006 2.006 0 0 0 -2 2v14a2 2 0 0 0 4 0zm-12.74 1.98a2.006 2.006 0 0 0 1.72-2.28l-1.97-13.97a2.015 2.015 0 0 0 -4.01.28c0 .09.01.19.02.29l1.97 13.97a2 2 0 0 0 2.27 1.71z" fill="#fad27a"/><path d="m60 33h-58a1 1 0 0 1 -1-1v-6a1 1 0 0 1 1-1h60a1 1 0 0 1 1 1v6a1 1 0 0 1 -1 1z" fill="#88ab00"/><path d="m58 25h-2v-15a5.006 5.006 0 0 0 -5-5h-7v-2h7a7.008 7.008 0 0 1 7 7z" fill="#cedada"/><path d="m8 25h-2v-15a7.008 7.008 0 0 1 7-7h7v2h-7a5.006 5.006 0 0 0 -5 5z" fill="#cedada"/><path d="m20 1v6h24v-6h-3a3 3 0 0 1 -3 3h-12a3 3 0 0 1 -3-3z" fill="#628c1b"/><path d="m62 25h-7.5a2.5 2.5 0 0 1 0 5h-45a2.5 2.5 0 0 1 0-5h-7.5a1 1 0 0 0 -1 1v6a1 1 0 0 0 1 1h60a1 1 0 0 0 1-1v-6a1 1 0 0 0 -1-1z" fill="#628c1b"/><path d="m53.612 60h-30.512a11.482 11.482 0 0 1 -8.821-4.134 2 2 0 0 1 -1.286-1.6l-.055-.393a11.478 11.478 0 0 1 -1.092-7.741l-.826-5.832c-.01-.1-.02-.2-.02-.29a2.015 2.015 0 0 1 4.01-.28l.076.535a11.425 11.425 0 0 1 8.014-3.265h36.366l.534-4h-56l3.54 26.53a3.991 3.991 0 0 0 3.96 3.47h41a3.991 3.991 0 0 0 3.96-3.47l.115-.858a3.988 3.988 0 0 1 -2.963 1.328z" fill="#f5b662"/><rect fill="#accc5f" height="3" rx="1.5" width="36" x="14" y="25"/><path d="m56 22h2v3h-2z" fill="#a3b7b6"/><path d="m6 22h2v3h-2z" fill="#a3b7b6"/><path d="m44 3h4v2h-4z" fill="#a3b7b6"/><path d="m16 3h4v2h-4z" fill="#a3b7b6"/><rect fill="#accc5f" height="2" rx="1" width="12" x="26" y="2"/><path d="m34 16.54v-2.54a2.006 2.006 0 0 1 2-2 2.015 2.015 0 0 1 2 2v2.54a3.974 3.974 0 0 0 -4 0z" fill="#88ab00"/><path d="m32 24a3.657 3.657 0 0 0 .13 1h-3a3.657 3.657 0 0 1 -.13-1l-1-4a3.691 3.691 0 0 1 .12-.95 3.991 3.991 0 0 1 3.88-3.05 2.427 2.427 0 0 1 1.85.63 3.993 3.993 0 0 0 -1.85 3.37z" fill="#ff8b26"/><path d="m39.87 25a3.657 3.657 0 0 0 .13-1v-4a4.025 4.025 0 0 0 -1.17-2.83 3.937 3.937 0 0 0 -.68-.54 2.427 2.427 0 0 1 1.85-.63 4 4 0 0 1 4 4l-1 4a3.657 3.657 0 0 1 -.13 1z" fill="#ff8b26"/><path d="m38.15 16.63a3.937 3.937 0 0 1 .68.54 4.025 4.025 0 0 1 1.17 2.83v4a3.657 3.657 0 0 1 -.13 1h-7.74a3.657 3.657 0 0 1 -.13-1v-4a3.993 3.993 0 0 1 1.85-3.37l.15-.09a3.974 3.974 0 0 1 4 0z" fill="#faab1b"/><path d="m1.03 1.029s7.19-.56 12.8 3.21c.27.17.53.36.79.56.05.47-.02 1.791-1.63 3.961a19.566 19.566 0 0 1 -1.97 2.26 19.566 19.566 0 0 1 -2.26 1.97c-2.17 1.61-3.49 1.68-3.96 1.63-4.38-5.7-3.77-13.591-3.77-13.591z" fill="#cedada"/><path d="m8.88 13.16 3.84 3.84.05.09a4.943 4.943 0 0 0 -2.49 2.95l-.11-.04c-1.11-1.04-2.19-2.06-3.16-3.01-.35-.34-.68-.67-.99-.98a13.194 13.194 0 0 1 -1.22-1.39c.47.05 1.79-.02 3.96-1.63z" fill="#a3b7b6"/><path d="m28 20 1 4a3.657 3.657 0 0 0 .13 1h-3.71a8.093 8.093 0 0 0 .58-3c0-3.36-2.07-5.08-5-5.7v-.3l1.83-2.74c1.91 2.09 3.73 4.13 5.17 5.76l.12.03a3.691 3.691 0 0 0 -.12.95z" fill="#a3b7b6"/><path d="m13 13 2 3v.3a8.061 8.061 0 0 0 -2.23.79l-.05-.09-3.84-3.84-.12-.17a19.566 19.566 0 0 0 2.26-1.97 19.566 19.566 0 0 0 1.97-2.26l.17.12 3.84 3.84.13.13-1.18 1.15z" fill="#516667"/><path d="m22.69 13.1-2.69.9-2-2-.87.85-.13-.13-3.84-3.84-.17-.12c1.61-2.17 1.68-3.491 1.63-3.96a13.092 13.092 0 0 1 1.39 1.22c1.98 1.98 4.38 4.56 6.68 7.08z" fill="#b8cfcd"/><path d="m49 9h8a1 1 0 0 1 1 1v2h-10v-2a1 1 0 0 1 1-1z" fill="#56d5f8"/><path d="m58 12 4 5h-11l-3-5z" fill="#99efff"/><path d="m51 17h11v8h-11z" fill="#69e5fd"/><path d="m32 24a3.657 3.657 0 0 0 .13 1h-3a3.657 3.657 0 0 1 -.13-1l-1-4a3.691 3.691 0 0 1 .12-.95 3.991 3.991 0 0 1 3.88-3.05 2.427 2.427 0 0 1 1.85.63 3.993 3.993 0 0 0 -1.85 3.37z" fill="#ff8b26"/><path d="m40 16a4 4 0 0 1 4 4l-1 4a3.657 3.657 0 0 1 -.13 1h-3a3.657 3.657 0 0 0 .13-1v-4a4.025 4.025 0 0 0 -1.17-2.83 3.937 3.937 0 0 0 -.68-.54 2.427 2.427 0 0 1 1.85-.63z" fill="#ff8b26"/><path d="m20 14 2.69-.9a1.07 1.07 0 0 1 .14.16l-1.83 2.74v.3a13.687 13.687 0 0 0 -3-.3 13.687 13.687 0 0 0 -3 .3v-.3l-2-3 2.95 1 1.18-1.15.87-.85z" fill="#88ab00"/><path d="m15 16.3a13.687 13.687 0 0 1 3-.3 13.687 13.687 0 0 1 3 .3c2.93.62 5 2.34 5 5.7a8.093 8.093 0 0 1 -.58 3h-14.84a8.093 8.093 0 0 1 -.58-3 6.576 6.576 0 0 1 .28-1.96 4.943 4.943 0 0 1 2.49-2.95 8.061 8.061 0 0 1 2.23-.79z" fill="#cc464f"/><path d="m51 17h-7v3 .001 4.999h7z" fill="#01a3ec"/><path d="m49.054 13.756-1.054-1.756-4 5h1z" fill="#0191d8"/><path d="m51 17-1.946-3.244-4.054 3.244h-1z" fill="#006cbf"/><path d="m51 17v8h11v-2h-3a5 5 0 0 1 -5-5v-1z" fill="#30cfff"/><path d="m51.142 12h-3.142l3 5h3z" fill="#69e5fd"/><path d="m50 9h-1a1 1 0 0 0 -1 1v2h10v-1h-6a2 2 0 0 1 -2-2z" fill="#01c1ff"/><path d="m16.5 23a3.5 3.5 0 0 1 -1.37-6.721c-.042.009-.088.011-.13.02a8.061 8.061 0 0 0 -2.23.79 4.945 4.945 0 0 0 -2.49 2.951 6.576 6.576 0 0 0 -.28 1.96 8.093 8.093 0 0 0 .58 3h14.84a8.2 8.2 0 0 0 .51-2z" fill="#99343b"/><path d="m22.69 13.1-2.69.9v1h-4v-1.049l-.05.049-2.95-1 2 3v.3a13.687 13.687 0 0 1 3-.3 13.687 13.687 0 0 1 3 .3v-.3l1.83-2.74a1.07 1.07 0 0 0 -.14-.16z" fill="#628c1b"/><path d="m24 23a1 1 0 0 1 -1-1c0-1.626-.916-3-2-3a1 1 0 0 1 0-2c2.243 0 4 2.2 4 5a1 1 0 0 1 -1 1z" fill="#ff5863"/><path d="m43 24 .25-1h-.25a1 1 0 0 1 -1-1v-3a2.191 2.191 0 0 0 -.5-1.358 1.021 1.021 0 0 1 .047-1.333 4.011 4.011 0 0 0 -1.547-.309 2.427 2.427 0 0 0 -1.85.63 3.937 3.937 0 0 1 .68.54 4.127 4.127 0 0 1 .517.652 3.989 3.989 0 0 1 .653 2.178v4a3.645 3.645 0 0 1 -.13 1h3a3.657 3.657 0 0 0 .13-1z" fill="#f37924"/><path d="m32 24v-4a3.993 3.993 0 0 1 1.85-3.37 2.427 2.427 0 0 0 -1.85-.63 3.963 3.963 0 0 0 -1.534.319 1.023 1.023 0 0 1 .037 1.324 2.191 2.191 0 0 0 -.503 1.357v3a1 1 0 0 1 -1 1h-.25l.25 1a3.657 3.657 0 0 0 .13 1h3a3.645 3.645 0 0 1 -.13-1z" fill="#f37924"/><path d="m34 21v-3a2 2 0 0 1 2-2 3.989 3.989 0 0 0 -2 .54l-.15.09a4 4 0 0 0 -1.85 3.37v4a3.657 3.657 0 0 0 .13 1h7.74a3.657 3.657 0 0 0 .13-1v-1h-4a2 2 0 0 1 -2-2z" fill="#ff9b00"/><path d="m36.5 15a1.5 1.5 0 0 1 -.249-2.975 1.888 1.888 0 0 0 -.251-.025 2.006 2.006 0 0 0 -2 2v2.54a3.974 3.974 0 0 1 4 0v-1.54z" fill="#628c1b"/><path d="m13.83 4.239c-.116-.077-.236-.143-.353-.217a28.08 28.08 0 0 1 -4.753 4.92 2.956 2.956 0 0 1 -3.856-.235c-2.381-2.355-3.66-6.925-3.842-7.607-.043.668-.405 8.082 3.774 13.52.47.05 1.79-.02 3.96-1.63a19.566 19.566 0 0 0 2.26-1.97 19.566 19.566 0 0 0 1.97-2.26c1.61-2.171 1.68-3.491 1.63-3.96-.26-.2-.52-.391-.79-.561z" fill="#b8cfcd"/><circle cx="8.5" cy="5.5" fill="#2c3d45" r="1.5"/><path d="m4 4-1.194-2.987c-1.1-.035-1.776.016-1.776.016v.045c.159.443 1.148 2.926 2.97 2.926z" fill="#839d9c"/><circle cx="8.5" cy="5.5" fill="#fff" r=".5"/><path d="m8.76 12.99.12.17 3.84 3.84.05.09a8.061 8.061 0 0 1 2.23-.79v-.3l-4.487-4.488a18.489 18.489 0 0 1 -1.753 1.478z" fill="#3e5857"/><path d="m17.13 12.85-.13-.13-3.84-3.84-.17-.12c-.28.382-.615.793-1 1.229l3.986 3.986z" fill="#3e5857"/><path d="m15.95 14 .025-.025-3.986-3.986c-.291.328-.608.67-.969 1.031-.174.174-.342.334-.508.491l4.488 4.489-2-3z" fill="#516667"/><path d="m11.374 11.373a20.343 20.343 0 0 0 2.018-2.316 7.457 7.457 0 0 0 1.73-3.848c-.167-.139-.333-.279-.5-.41s-.328-.234-.492-.348a.482.482 0 0 0 -.021.277 1.031 1.031 0 0 1 .016.124c.033.317.022 1.512-1.536 3.613a19.323 19.323 0 0 1 -1.92 2.2 19.313 19.313 0 0 1 -2.2 1.923c-2.1 1.555-3.292 1.567-3.622 1.532a.857.857 0 0 1 -.1-.012.471.471 0 0 0 -.286.014c.117.165.223.335.348.5s.27.335.41.5a7.45 7.45 0 0 0 3.845-1.727 20.245 20.245 0 0 0 2.31-2.022z" fill="#839d9c"/><path d="m35.835 19.137c.4.367.73.788 1.135 1.148a2.609 2.609 0 0 0 1.465.715.445.445 0 0 0 .218-.022.391.391 0 0 0 .184-.219 2.16 2.16 0 0 0 -.1-1.849 3.611 3.611 0 0 0 -2.799-1.91.884.884 0 0 0 -.914.7c-.144.632.376 1.034.811 1.437z" fill="#fbcb00"/></g></svg>